<?xml version="1.0" encoding="UTF-8"?>
<svg width="564px" height="96px" viewBox="0 0 564 96" version="1.1" xmlns="http://www.w3.org/2000/svg" xmlns:xlink="http://www.w3.org/1999/xlink">
    <!-- Generator: Sketch 53 (72520) - https://sketchapp.com -->
    <title>COMPLÈTE</title>
    <desc>Created with Sketch.</desc>
    <g id="Page-1" stroke="none" stroke-width="1" fill="none" fill-rule="evenodd">
        <g id="Frame-4-v2-Copy" transform="translate(-438.000000, -61.000000)" fill="#C3C3C3" fill-rule="nonzero">
            <path d="M503.35,143.7 C496.15,151.4 488.15,156.2 474.65,156.2 C454.05,156.2 438.75,140.3 438.75,120.2 L438.75,120 C438.75,100.1 453.75,83.8 475.25,83.8 C488.45,83.8 496.35,88.2 502.85,94.6 L493.05,105.9 C487.65,101 482.15,98 475.15,98 C463.35,98 454.85,107.8 454.85,119.8 L454.85,120 C454.85,132 463.15,142 475.15,142 C483.15,142 488.05,138.8 493.55,133.8 L503.35,143.7 Z M586.95,120 C586.95,139.9 571.25,156.2 549.65,156.2 C528.05,156.2 512.55,140.1 512.55,120.2 L512.55,120 C512.55,100.1 528.25,83.8 549.85,83.8 C571.45,83.8 586.95,99.9 586.95,119.8 L586.95,120 Z M570.85,120.2 L570.85,120 C570.85,108 562.05,98 549.65,98 C537.25,98 528.65,107.8 528.65,119.8 L528.65,120 C528.65,132 537.45,142 549.85,142 C562.25,142 570.85,132.2 570.85,120.2 Z M670.65,155 L655.35,155 L655.35,109.3 L635.65,139.2 L635.25,139.2 L615.75,109.6 L615.75,155 L600.65,155 L600.65,85 L617.25,85 L635.65,114.6 L654.05,85 L670.65,85 L670.65,155 Z M742.85,109.4 C742.85,125.6 730.25,134 714.55,134 L702.85,134 L702.85,155 L687.45,155 L687.45,85 L716.05,85 C732.75,85 742.85,94.9 742.85,109.2 L742.85,109.4 Z M727.25,109.7 L727.25,109.5 C727.25,102.6 722.45,98.9 714.75,98.9 L702.85,98.9 L702.85,120.3 L715.05,120.3 C722.75,120.3 727.25,115.7 727.25,109.7 Z M804.55,155 L754.25,155 L754.25,85 L769.65,85 L769.65,141 L804.55,141 L804.55,155 Z M869.45,155 L816.15,155 L816.15,85 L868.95,85 L868.95,98.7 L831.45,98.7 L831.45,112.9 L864.45,112.9 L864.45,126.6 L831.45,126.6 L831.45,141.3 L869.45,141.3 L869.45,155 Z M851.05,79.5 L839.45,79.5 L826.65,67.5 L839.75,61.8 L851.05,79.5 Z M936.15,99.2 L914.85,99.2 L914.85,155 L899.45,155 L899.45,99.2 L878.15,99.2 L878.15,85 L936.15,85 L936.15,99.2 Z M1001.25,155 L947.95,155 L947.95,85 L1000.75,85 L1000.75,98.7 L963.25,98.7 L963.25,112.9 L996.25,112.9 L996.25,126.6 L963.25,126.6 L963.25,141.3 L1001.25,141.3 L1001.25,155 Z" id="COMPLÈTE"></path>
        </g>
    </g>
</svg>