<?xml version="1.0" encoding="UTF-8"?>
<svg width="513px" height="74px" viewBox="0 0 513 74" version="1.1" xmlns="http://www.w3.org/2000/svg" xmlns:xlink="http://www.w3.org/1999/xlink">
    <!-- Generator: Sketch 53 (72520) - https://sketchapp.com -->
    <title>GRAISSES</title>
    <desc>Created with Sketch.</desc>
    <g id="Page-1" stroke="none" stroke-width="1" fill="none" fill-rule="evenodd">
        <g id="Frame-4-v2-Copy" transform="translate(-464.000000, -83.000000)" fill="#C3C3C3" fill-rule="nonzero">
            <path d="M530.85,145.1 C523.65,151.2 513.75,156.2 500.95,156.2 C479.15,156.2 464.15,140.9 464.15,120.2 L464.15,120 C464.15,100.1 479.65,83.8 500.85,83.8 C513.45,83.8 521.05,87.2 528.35,93.4 L518.65,105.1 C513.25,100.6 508.45,98 500.35,98 C489.15,98 480.25,107.9 480.25,119.8 L480.25,120 C480.25,132.8 489.05,142.2 501.45,142.2 C507.05,142.2 512.05,140.8 515.95,138 L515.95,128 L500.45,128 L500.45,114.7 L530.85,114.7 L530.85,145.1 Z M606.15,155 L588.15,155 L573.15,132.6 L561.05,132.6 L561.05,155 L545.65,155 L545.65,85 L577.65,85 C594.15,85 604.05,93.7 604.05,108.1 L604.05,108.3 C604.05,119.6 597.95,126.7 589.05,130 L606.15,155 Z M588.45,109.1 L588.45,108.9 C588.45,102.3 583.85,98.9 576.35,98.9 L561.05,98.9 L561.05,119 L576.65,119 C584.15,119 588.45,115 588.45,109.1 Z M686.15,155 L670.05,155 L663.65,139.3 L634.05,139.3 L627.65,155 L611.95,155 L641.95,84.5 L656.15,84.5 L686.15,155 Z M658.15,125.7 L648.85,103 L639.55,125.7 L658.15,125.7 Z M713.05,155 L697.65,155 L697.65,85 L713.05,85 L713.05,155 Z M781.15,134.3 C781.15,148.2 770.55,156 755.45,156 C744.85,156 734.15,152.3 725.75,144.8 L734.85,133.9 C741.15,139.1 747.75,142.4 755.75,142.4 C762.05,142.4 765.85,139.9 765.85,135.8 L765.85,135.6 C765.85,131.7 763.45,129.7 751.75,126.7 C737.65,123.1 728.55,119.2 728.55,105.3 L728.55,105.1 C728.55,92.4 738.75,84 753.05,84 C763.25,84 771.95,87.2 779.05,92.9 L771.05,104.5 C764.85,100.2 758.75,97.6 752.85,97.6 C746.95,97.6 743.85,100.3 743.85,103.7 L743.85,103.9 C743.85,108.5 746.85,110 758.95,113.1 C773.15,116.8 781.15,121.9 781.15,134.1 L781.15,134.3 Z M845.15,134.3 C845.15,148.2 834.55,156 819.45,156 C808.85,156 798.15,152.3 789.75,144.8 L798.85,133.9 C805.15,139.1 811.75,142.4 819.75,142.4 C826.05,142.4 829.85,139.9 829.85,135.8 L829.85,135.6 C829.85,131.7 827.45,129.7 815.75,126.7 C801.65,123.1 792.55,119.2 792.55,105.3 L792.55,105.1 C792.55,92.4 802.75,84 817.05,84 C827.25,84 835.95,87.2 843.05,92.9 L835.05,104.5 C828.85,100.2 822.75,97.6 816.85,97.6 C810.95,97.6 807.85,100.3 807.85,103.7 L807.85,103.9 C807.85,108.5 810.85,110 822.95,113.1 C837.15,116.8 845.15,121.9 845.15,134.1 L845.15,134.3 Z M911.85,155 L858.55,155 L858.55,85 L911.35,85 L911.35,98.7 L873.85,98.7 L873.85,112.9 L906.85,112.9 L906.85,126.6 L873.85,126.6 L873.85,141.3 L911.85,141.3 L911.85,155 Z M976.15,134.3 C976.15,148.2 965.55,156 950.45,156 C939.85,156 929.15,152.3 920.75,144.8 L929.85,133.9 C936.15,139.1 942.75,142.4 950.75,142.4 C957.05,142.4 960.85,139.9 960.85,135.8 L960.85,135.6 C960.85,131.7 958.45,129.7 946.75,126.7 C932.65,123.1 923.55,119.2 923.55,105.3 L923.55,105.1 C923.55,92.4 933.75,84 948.05,84 C958.25,84 966.95,87.2 974.05,92.9 L966.05,104.5 C959.85,100.2 953.75,97.6 947.85,97.6 C941.95,97.6 938.85,100.3 938.85,103.7 L938.85,103.9 C938.85,108.5 941.85,110 953.95,113.1 C968.15,116.8 976.15,121.9 976.15,134.1 L976.15,134.3 Z" id="GRAISSES"></path>
        </g>
    </g>
</svg>