<?xml version="1.0" encoding="UTF-8"?>
<svg width="643px" height="106px" viewBox="0 0 643 106" version="1.1" xmlns="http://www.w3.org/2000/svg" xmlns:xlink="http://www.w3.org/1999/xlink">
    <!-- Generator: Sketch 52.6 (67491) - http://www.bohemiancoding.com/sketch -->
    <title>Change</title>
    <desc>Created with Sketch.</desc>
    <g id="Page-1" stroke="none" stroke-width="1" fill="none" fill-rule="evenodd">
        <g id="Frame1" transform="translate(-483.000000, -662.000000)" fill="#F1F1F1">
            <path d="M535.74,767.74 C505.87,767.74 483.685,744.685 483.685,715.25 C483.685,686.395 505.435,662.76 536.61,662.76 C555.75,662.76 566.48,670.01 575.905,679.29 L562.565,694.66 C554.735,687.555 548.065,683.35 536.465,683.35 C519.355,683.35 507.03,697.56 507.03,715.25 C507.03,732.65 519.065,747.15 536.465,747.15 C548.065,747.15 555.17,742.51 563.145,735.26 L577.355,750.485 C566.915,761.65 555.315,767.74 535.74,767.74 Z M595.19,766 L595.19,664.5 L617.52,664.5 L617.52,704.665 L658.7,704.665 L658.7,664.5 L681.03,664.5 L681.03,766 L658.7,766 L658.7,725.255 L617.52,725.255 L617.52,766 L595.19,766 Z M696.69,766 L740.19,663.775 L760.78,663.775 L804.28,766 L780.935,766 L771.655,743.235 L728.735,743.235 L719.455,766 L696.69,766 Z M736.71,723.515 L763.68,723.515 L750.195,690.6 L736.71,723.515 Z M819.94,766 L819.94,664.5 L840.53,664.5 L888.09,726.995 L888.09,664.5 L910.13,664.5 L910.13,766 L891.135,766 L841.98,701.475 L841.98,766 L819.94,766 Z M983.355,767.74 C951.745,767.74 929.995,745.555 929.995,715.25 C929.995,686.395 952.47,662.76 983.21,662.76 C1001.48,662.76 1012.5,667.69 1023.085,676.68 L1009.02,693.645 C1001.19,687.12 994.23,683.35 982.485,683.35 C966.245,683.35 953.34,697.705 953.34,715.25 C953.34,733.81 966.1,747.44 984.08,747.44 C992.2,747.44 999.45,745.41 1005.105,741.35 L1005.105,726.85 L982.63,726.85 L982.63,707.565 L1026.71,707.565 L1026.71,751.645 C1016.27,760.49 1001.915,767.74 983.355,767.74 Z M1048.17,766 L1048.17,664.5 L1124.73,664.5 L1124.73,684.365 L1070.355,684.365 L1070.355,704.955 L1118.205,704.955 L1118.205,724.82 L1070.355,724.82 L1070.355,746.135 L1125.455,746.135 L1125.455,766 L1048.17,766 Z" id="Change"></path>
        </g>
    </g>
</svg>