<?xml version="1.0" encoding="UTF-8"?>
<svg width="13px" height="13px" viewBox="0 0 13 13" version="1.1" xmlns="http://www.w3.org/2000/svg" xmlns:xlink="http://www.w3.org/1999/xlink">
    <!-- Generator: Sketch 52.6 (67491) - http://www.bohemiancoding.com/sketch -->
    <title>#</title>
    <desc>Created with Sketch.</desc>
    <g id="Page-1" stroke="none" stroke-width="1" fill="none" fill-rule="evenodd">
        <g id="Frame-6" transform="translate(-876.000000, -353.000000)" fill="#272727">
            <g id="Group-Copy-2" transform="translate(876.000000, 353.000000)">
                <path d="M1.73,13 L2.198,10.3 L0.83,10.3 L0.83,7.996 L2.594,7.996 L3.044,5.332 L1.46,5.332 L1.46,3.028 L3.44,3.028 L3.89,0.4 L6.266,0.4 L5.816,3.028 L8.426,3.028 L8.876,0.4 L11.252,0.4 L10.802,3.028 L12.17,3.028 L12.17,5.332 L10.406,5.332 L9.956,7.996 L11.54,7.996 L11.54,10.3 L9.56,10.3 L9.092,13 L6.716,13 L7.184,10.3 L4.574,10.3 L4.106,13 L1.73,13 Z M4.97,7.996 L7.58,7.996 L8.03,5.332 L5.42,5.332 L4.97,7.996 Z" id="#"></path>
            </g>
        </g>
    </g>
</svg>