<?xml version="1.0" encoding="UTF-8"?>
<svg width="895px" height="143px" viewBox="0 0 895 143" version="1.1" xmlns="http://www.w3.org/2000/svg" xmlns:xlink="http://www.w3.org/1999/xlink">
    <!-- Generator: Sketch 52.6 (67491) - http://www.bohemiancoding.com/sketch -->
    <title>Gotham</title>
    <desc>Created with Sketch.</desc>
    <g id="Page-1" stroke="none" stroke-width="1" fill="none" fill-rule="evenodd">
        <g id="Frame1" transform="translate(-315.000000, -171.000000)" fill="#F1F1F1">
            <path d="M387.516,313.352 C344.788,313.352 315.388,283.364 315.388,242.4 C315.388,203.396 345.768,171.448 387.32,171.448 C412.016,171.448 426.912,178.112 441.22,190.264 L422.208,213.196 C411.624,204.376 402.216,199.28 386.34,199.28 C364.388,199.28 346.944,218.684 346.944,242.4 C346.944,267.488 364.192,285.912 388.496,285.912 C399.472,285.912 409.272,283.168 416.916,277.68 L416.916,258.08 L386.536,258.08 L386.536,232.012 L446.12,232.012 L446.12,291.596 C432.008,303.552 412.604,313.352 387.516,313.352 Z M541.768,313.352 C499.432,313.352 469.052,281.796 469.052,242.4 C469.052,203.396 499.824,171.448 542.16,171.448 C584.496,171.448 614.876,203.004 614.876,242.4 C614.876,281.404 584.104,313.352 541.768,313.352 Z M542.16,285.52 C566.464,285.52 583.32,266.312 583.32,242.4 C583.32,218.88 566.072,199.28 541.768,199.28 C517.464,199.28 500.608,218.488 500.608,242.4 C500.608,265.92 517.856,285.52 542.16,285.52 Z M673.676,311 L673.676,201.632 L631.928,201.632 L631.928,173.8 L745.608,173.8 L745.608,201.632 L703.86,201.632 L703.86,311 L673.676,311 Z M768.736,311 L768.736,173.8 L798.92,173.8 L798.92,228.092 L854.584,228.092 L854.584,173.8 L884.768,173.8 L884.768,311 L854.584,311 L854.584,255.924 L798.92,255.924 L798.92,311 L768.736,311 Z M905.936,311 L964.736,172.82 L992.568,172.82 L1051.368,311 L1019.812,311 L1007.268,280.228 L949.252,280.228 L936.708,311 L905.936,311 Z M960.032,253.572 L996.488,253.572 L978.26,209.08 L960.032,253.572 Z M1072.536,311 L1072.536,173.8 L1105.072,173.8 L1141.136,231.816 L1177.2,173.8 L1209.736,173.8 L1209.736,311 L1179.748,311 L1179.748,221.428 L1141.136,280.032 L1140.352,280.032 L1102.132,222.016 L1102.132,311 L1072.536,311 Z" id="Gotham"></path>
        </g>
    </g>
</svg>