<?xml version="1.0" encoding="UTF-8"?>
<svg width="926px" height="67px" viewBox="0 0 926 67" version="1.1" xmlns="http://www.w3.org/2000/svg" xmlns:xlink="http://www.w3.org/1999/xlink">
    <!-- Generator: Sketch 53 (72520) - https://sketchapp.com -->
    <title>GRAISSE&amp;FAMILLE</title>
    <desc>Created with Sketch.</desc>
    <g id="Page-1" stroke="none" stroke-width="1" fill="none" fill-rule="evenodd">
        <g id="Frame-4-v2-Copy" transform="translate(-257.000000, -90.000000)" fill="#C3C3C3" fill-rule="nonzero">
            <path d="M316.305,146.27 C314.744992,147.590007 313.020009,148.849994 311.13,150.05 C309.239991,151.250006 307.200011,152.299995 305.01,153.2 C302.819989,154.100005 300.465013,154.804997 297.945,155.315 C295.424987,155.825003 292.785014,156.08 290.025,156.08 C285.104975,156.08 280.63502,155.255008 276.615,153.605 C272.59498,151.954992 269.160014,149.675015 266.31,146.765 C263.459986,143.854985 261.255008,140.42002 259.695,136.46 C258.134992,132.49998 257.355,128.210023 257.355,123.59 C257.355,119.149978 258.149992,114.95002 259.74,110.99 C261.330008,107.02998 263.564986,103.565015 266.445,100.595 C269.325014,97.6249852 272.75998,95.2700087 276.75,93.53 C280.74002,91.7899913 285.104976,90.92 289.845,90.92 C292.605014,90.92 295.109989,91.114998 297.36,91.505 C299.610011,91.895002 301.69499,92.4499964 303.615,93.17 C305.53501,93.8900036 307.349991,94.7749948 309.06,95.825 C310.770009,96.8750053 312.434992,98.0899931 314.055,99.47 L307.035,107.84 C305.834994,106.819995 304.605006,105.890004 303.345,105.05 C302.084994,104.209996 300.765007,103.505003 299.385,102.935 C298.004993,102.364997 296.490008,101.915002 294.84,101.585 C293.189992,101.254998 291.37501,101.09 289.395,101.09 C286.514986,101.09 283.830012,101.674994 281.34,102.845 C278.849988,104.015006 276.690009,105.61999 274.86,107.66 C273.029991,109.70001 271.590005,112.069986 270.54,114.77 C269.489995,117.470014 268.965,120.349985 268.965,123.41 C268.965,126.650016 269.474995,129.649986 270.495,132.41 C271.515005,135.170014 272.969991,137.55499 274.86,139.565 C276.750009,141.57501 278.999987,143.149994 281.61,144.29 C284.220013,145.430006 287.144984,146 290.385,146 C293.385015,146 296.189987,145.565004 298.8,144.695 C301.410013,143.824996 303.67499,142.670007 305.595,141.23 L305.595,129.44 L289.485,129.44 L289.485,119.81 L316.305,119.81 L316.305,146.27 Z M384.165,155 L371.115,155 L355.635,133.04 L341.775,133.04 L341.775,155 L330.705,155 L330.705,92 L358.785,92 C362.385018,92 365.639985,92.4649954 368.55,93.395 C371.460015,94.3250046 373.91999,95.6449914 375.93,97.355 C377.94001,99.0650086 379.484995,101.164988 380.565,103.655 C381.645005,106.145012 382.185,108.919985 382.185,111.98 C382.185,114.620013 381.810004,116.97499 381.06,119.045 C380.309996,121.11501 379.275007,122.944992 377.955,124.535 C376.634993,126.125008 375.060009,127.474994 373.23,128.585 C371.399991,129.695006 369.375011,130.549997 367.155,131.15 L384.165,155 Z M370.935,112.61 C370.935,109.129983 369.795011,106.505009 367.515,104.735 C365.234989,102.964991 362.025021,102.08 357.885,102.08 L341.775,102.08 L341.775,123.23 L357.975,123.23 C361.93502,123.23 365.084988,122.27001 367.425,120.35 C369.765012,118.42999 370.935,115.850016 370.935,112.61 Z M428.355,91.55 L456.075,155 L444.375,155 L437.985,139.79 L408.195,139.79 L401.715,155 L390.375,155 L418.095,91.55 L428.355,91.55 Z M433.935,129.98 L423.045,104.78 L412.245,129.98 L433.935,129.98 Z M467.505,92 L478.575,92 L478.575,155 L467.505,155 L467.505,92 Z M504.765,108.47 C504.765,109.730006 504.974998,110.809995 505.395,111.71 C505.815002,112.610005 506.579994,113.449996 507.69,114.23 C508.800006,115.010004 510.32999,115.729997 512.28,116.39 C514.23001,117.050003 516.704985,117.739996 519.705,118.46 C523.005017,119.300004 525.929987,120.229995 528.48,121.25 C531.030013,122.270005 533.144992,123.514993 534.825,124.985 C536.505008,126.455007 537.779996,128.16499 538.65,130.115 C539.520004,132.06501 539.955,134.359987 539.955,137 C539.955,140.000015 539.400006,142.669988 538.29,145.01 C537.179994,147.350012 535.63501,149.329992 533.655,150.95 C531.67499,152.570008 529.305014,153.799996 526.545,154.64 C523.784986,155.480004 520.755017,155.9 517.455,155.9 C512.594976,155.9 507.945022,155.075008 503.505,153.425 C499.064978,151.774992 494.955019,149.240017 491.175,145.82 L497.835,137.9 C500.895015,140.540013 503.984984,142.564993 507.105,143.975 C510.225016,145.385007 513.76498,146.09 517.725,146.09 C521.145017,146.09 523.85999,145.370007 525.87,143.93 C527.88001,142.489993 528.885,140.540012 528.885,138.08 C528.885,136.939994 528.690002,135.920005 528.3,135.02 C527.909998,134.119996 527.190005,133.295004 526.14,132.545 C525.089995,131.794996 523.650009,131.090003 521.82,130.43 C519.989991,129.769997 517.605015,129.080004 514.665,128.36 C511.304983,127.579996 508.320013,126.710005 505.71,125.75 C503.099987,124.789995 500.910009,123.590007 499.14,122.15 C497.369991,120.709993 496.020005,118.97001 495.09,116.93 C494.159995,114.88999 493.695,112.400015 493.695,109.46 C493.695,106.699986 494.234995,104.195011 495.315,101.945 C496.395005,99.6949887 497.879991,97.7600081 499.77,96.14 C501.660009,94.5199919 503.924987,93.2750044 506.565,92.405 C509.205013,91.5349956 512.084984,91.1 515.205,91.1 C519.825023,91.1 523.979982,91.7749932 527.67,93.125 C531.360018,94.4750068 534.824984,96.4399871 538.065,99.02 L532.125,107.39 C529.244986,105.28999 526.395014,103.685006 523.575,102.575 C520.754986,101.464994 517.905014,100.91 515.025,100.91 C511.784984,100.91 509.265009,101.644993 507.465,103.115 C505.664991,104.585007 504.765,106.36999 504.765,108.47 Z M562.365,108.47 C562.365,109.730006 562.574998,110.809995 562.995,111.71 C563.415002,112.610005 564.179994,113.449996 565.29,114.23 C566.400006,115.010004 567.92999,115.729997 569.88,116.39 C571.83001,117.050003 574.304985,117.739996 577.305,118.46 C580.605016,119.300004 583.529987,120.229995 586.08,121.25 C588.630013,122.270005 590.744992,123.514993 592.425,124.985 C594.105008,126.455007 595.379996,128.16499 596.25,130.115 C597.120004,132.06501 597.555,134.359987 597.555,137 C597.555,140.000015 597.000006,142.669988 595.89,145.01 C594.779994,147.350012 593.23501,149.329992 591.255,150.95 C589.27499,152.570008 586.905014,153.799996 584.145,154.64 C581.384986,155.480004 578.355016,155.9 575.055,155.9 C570.194976,155.9 565.545022,155.075008 561.105,153.425 C556.664978,151.774992 552.555019,149.240017 548.775,145.82 L555.435,137.9 C558.495015,140.540013 561.584984,142.564993 564.705,143.975 C567.825016,145.385007 571.36498,146.09 575.325,146.09 C578.745017,146.09 581.45999,145.370007 583.47,143.93 C585.48001,142.489993 586.485,140.540012 586.485,138.08 C586.485,136.939994 586.290002,135.920005 585.9,135.02 C585.509998,134.119996 584.790005,133.295004 583.74,132.545 C582.689995,131.794996 581.250009,131.090003 579.42,130.43 C577.589991,129.769997 575.205015,129.080004 572.265,128.36 C568.904983,127.579996 565.920013,126.710005 563.31,125.75 C560.699987,124.789995 558.510009,123.590007 556.74,122.15 C554.969991,120.709993 553.620005,118.97001 552.69,116.93 C551.759995,114.88999 551.295,112.400015 551.295,109.46 C551.295,106.699986 551.834995,104.195011 552.915,101.945 C553.995005,99.6949887 555.479991,97.7600081 557.37,96.14 C559.260009,94.5199919 561.524987,93.2750044 564.165,92.405 C566.805013,91.5349956 569.684984,91.1 572.805,91.1 C577.425023,91.1 581.579982,91.7749932 585.27,93.125 C588.960018,94.4750068 592.424984,96.4399871 595.665,99.02 L589.725,107.39 C586.844986,105.28999 583.995014,103.685006 581.175,102.575 C578.354986,101.464994 575.505014,100.91 572.625,100.91 C569.384984,100.91 566.865009,101.644993 565.065,103.115 C563.264991,104.585007 562.365,106.36999 562.365,108.47 Z M657.315,92 L657.315,101.9 L621.675,101.9 L621.675,118.28 L653.265,118.28 L653.265,128.18 L621.675,128.18 L621.675,145.1 L657.765,145.1 L657.765,155 L610.605,155 L610.605,92 L657.315,92 Z M749.745,150.41 L741.555,156.26 L733.185,147.71 C730.484986,150.230013 727.545016,152.224993 724.365,153.695 C721.184984,155.165007 717.675019,155.9 713.835,155.9 C710.894985,155.9 708.180012,155.480004 705.69,154.64 C703.199988,153.799996 701.040009,152.585008 699.21,150.995 C697.379991,149.404992 695.940005,147.500011 694.89,145.28 C693.839995,143.059989 693.315,140.570014 693.315,137.81 C693.315,133.669979 694.469988,130.145015 696.78,127.235 C699.090012,124.324985 702.404978,121.940009 706.725,120.08 C704.924991,117.739988 703.605004,115.53501 702.765,113.465 C701.924996,111.39499 701.505,109.190012 701.505,106.85 C701.505,104.689989 701.924996,102.65001 702.765,100.73 C703.605004,98.8099904 704.804992,97.1300072 706.365,95.69 C707.925008,94.2499928 709.814989,93.0950043 712.035,92.225 C714.255011,91.3549957 716.774986,90.92 719.595,90.92 C722.115013,90.92 724.39499,91.3099961 726.435,92.09 C728.47501,92.8700039 730.229993,93.9499931 731.7,95.33 C733.170007,96.7100069 734.309996,98.3299907 735.12,100.19 C735.930004,102.050009 736.335,104.059989 736.335,106.22 C736.335,110.420021 735.075013,113.824987 732.555,116.435 C730.034987,119.045013 726.675021,121.129992 722.475,122.69 L733.275,133.67 C734.475006,131.869991 735.644994,129.95001 736.785,127.91 C737.925006,125.86999 739.004995,123.740011 740.025,121.52 L748.395,125.93 C747.134994,128.450013 745.800007,130.924988 744.39,133.355 C742.979993,135.785012 741.465008,138.109989 739.845,140.33 L749.745,150.41 Z M726.525,106.85 C726.525,104.629989 725.850007,102.875006 724.5,101.585 C723.149993,100.294994 721.42501,99.65 719.325,99.65 C717.044989,99.65 715.230007,100.354993 713.88,101.765 C712.529993,103.175007 711.855,105.019989 711.855,107.3 C711.855,108.920008 712.214996,110.419993 712.935,111.8 C713.655004,113.180007 714.884991,114.82999 716.625,116.75 C719.865016,115.549994 722.324992,114.185008 724.005,112.655 C725.685008,111.124992 726.525,109.190012 726.525,106.85 Z M726.885,141.23 L712.845,126.92 C709.904985,128.180006 707.775007,129.724991 706.455,131.555 C705.134993,133.385009 704.475,135.349989 704.475,137.45 C704.475,140.150014 705.46499,142.369991 707.445,144.11 C709.42501,145.850009 711.944985,146.72 715.005,146.72 C717.165011,146.72 719.23499,146.240005 721.215,145.28 C723.19501,144.319995 725.084991,142.970009 726.885,141.23 Z M834.435,92 L834.435,102.08 L798.615,102.08 L798.615,119.27 L830.385,119.27 L830.385,129.35 L798.615,129.35 L798.615,155 L787.545,155 L787.545,92 L834.435,92 Z M879.165,91.55 L906.885,155 L895.185,155 L888.795,139.79 L859.005,139.79 L852.525,155 L841.185,155 L868.905,91.55 L879.165,91.55 Z M884.745,129.98 L873.855,104.78 L863.055,129.98 L884.745,129.98 Z M968.535,109.82 L948.645,139.52 L948.285,139.52 L928.575,110 L928.575,155 L917.685,155 L917.685,92 L929.475,92 L948.645,121.79 L967.815,92 L979.605,92 L979.605,155 L968.535,155 L968.535,109.82 Z M996.435,92 L1007.505,92 L1007.505,155 L996.435,155 L996.435,92 Z M1024.335,155 L1024.335,92 L1035.405,92 L1035.405,144.92 L1068.525,144.92 L1068.525,155 L1024.335,155 Z M1080.045,155 L1080.045,92 L1091.115,92 L1091.115,144.92 L1124.235,144.92 L1124.235,155 L1080.045,155 Z M1182.465,92 L1182.465,101.9 L1146.825,101.9 L1146.825,118.28 L1178.415,118.28 L1178.415,128.18 L1146.825,128.18 L1146.825,145.1 L1182.915,145.1 L1182.915,155 L1135.755,155 L1135.755,92 L1182.465,92 Z" id="GRAISSE&amp;FAMILLE"></path>
        </g>
    </g>
</svg>