<?xml version="1.0" encoding="UTF-8"?>
<svg width="408px" height="106px" viewBox="0 0 408 106" version="1.1" xmlns="http://www.w3.org/2000/svg" xmlns:xlink="http://www.w3.org/1999/xlink">
    <!-- Generator: Sketch 52.6 (67491) - http://www.bohemiancoding.com/sketch -->
    <title>Hope</title>
    <desc>Created with Sketch.</desc>
    <g id="Page-1" stroke="none" stroke-width="1" fill="none" fill-rule="evenodd">
        <g id="Frame1" transform="translate(-779.000000, -359.000000)" fill="#F1F1F1">
            <path d="M779.18,463 L779.18,361.5 L801.51,361.5 L801.51,401.665 L842.69,401.665 L842.69,361.5 L865.02,361.5 L865.02,463 L842.69,463 L842.69,422.255 L801.51,422.255 L801.51,463 L779.18,463 Z M938.68,464.74 C907.36,464.74 884.885,441.395 884.885,412.25 C884.885,383.395 907.65,359.76 938.97,359.76 C970.29,359.76 992.765,383.105 992.765,412.25 C992.765,441.105 970,464.74 938.68,464.74 Z M938.97,444.15 C956.95,444.15 969.42,429.94 969.42,412.25 C969.42,394.85 956.66,380.35 938.68,380.35 C920.7,380.35 908.23,394.56 908.23,412.25 C908.23,429.65 920.99,444.15 938.97,444.15 Z M1012.63,463 L1012.63,361.5 L1054.1,361.5 C1078.315,361.5 1092.96,375.855 1092.96,396.88 C1092.96,420.37 1074.69,432.55 1051.925,432.55 L1034.96,432.55 L1034.96,463 L1012.63,463 Z M1034.96,412.685 L1052.65,412.685 C1063.815,412.685 1070.34,406.015 1070.34,397.025 C1070.34,387.02 1063.38,381.655 1052.215,381.655 L1034.96,381.655 L1034.96,412.685 Z M1109.49,463 L1109.49,361.5 L1186.05,361.5 L1186.05,381.365 L1131.675,381.365 L1131.675,401.955 L1179.525,401.955 L1179.525,421.82 L1131.675,421.82 L1131.675,443.135 L1186.775,443.135 L1186.775,463 L1109.49,463 Z" id="Hope"></path>
        </g>
    </g>
</svg>