<?xml version="1.0" encoding="UTF-8"?>
<svg width="22px" height="13px" viewBox="0 0 22 13" version="1.1" xmlns="http://www.w3.org/2000/svg" xmlns:xlink="http://www.w3.org/1999/xlink">
    <!-- Generator: Sketch 52.6 (67491) - http://www.bohemiancoding.com/sketch -->
    <title>px</title>
    <desc>Created with Sketch.</desc>
    <g id="Page-1" stroke="none" stroke-width="1" fill="none" fill-rule="evenodd">
        <g id="Frame-6" transform="translate(-468.000000, -356.000000)" fill="#272727">
            <g id="Group" transform="translate(450.000000, 353.000000)">
                <path d="M18.893,15.88 L18.893,3.352 L21.629,3.352 L21.629,4.738 C22.295,3.838 23.213,3.172 24.635,3.172 C26.885,3.172 29.027,4.936 29.027,8.194 C29.027,11.416 26.921,13.18 24.635,13.18 C23.177,13.18 22.277,12.514 21.629,11.74 L21.629,15.88 L18.893,15.88 Z M23.933,10.858 C25.211,10.858 26.291,9.814 26.291,8.158 C26.291,6.556 25.211,5.494 23.933,5.494 C22.655,5.494 21.593,6.556 21.593,8.194 C21.593,9.796 22.655,10.858 23.933,10.858 Z M30.233,13 L33.617,8.104 L30.359,3.352 L33.293,3.352 L35.093,6.16 L36.911,3.352 L39.773,3.352 L36.515,8.05 L39.917,13 L36.983,13 L35.039,9.994 L33.095,13 L30.233,13 Z" id="px"></path>
            </g>
        </g>
    </g>
</svg>