<?xml version="1.0" encoding="UTF-8"?>
<svg width="837px" height="125px" viewBox="0 0 837 125" version="1.1" xmlns="http://www.w3.org/2000/svg" xmlns:xlink="http://www.w3.org/1999/xlink">
    <!-- Generator: Sketch 52.6 (67491) - http://www.bohemiancoding.com/sketch -->
    <title>Group</title>
    <desc>Created with Sketch.</desc>
    <defs>
        <circle id="path-1" cx="51.5" cy="51.5" r="51.5"></circle>
        <circle id="path-3" cx="885.5" cy="51.5" r="51.5"></circle>
    </defs>
    <g id="Page-1" stroke="none" stroke-width="1" fill="none" fill-rule="evenodd">
        <g id="Frame-2-Copy" transform="translate(-321.000000, -24.000000)">
            <g id="Group" transform="translate(220.000000, 25.000000)">
                <text id="Terminaisons" font-family="GothamPro-Medium, Gotham Pro" font-size="100" font-weight="400" fill="#C3C3C3">
                    <tspan x="97.85" y="122">TERMINAISONS</tspan>
                </text>
                <g id="Rectangle-+-Terminaisons-path-Mask" transform="translate(834.000000, 0.000000)">
                    <mask id="mask-2" fill="white">
                        <use xlink:href="#path-1"></use>
                    </mask>
                    <use id="Mask" fill="#FFFFFF" fill-rule="nonzero" xlink:href="#path-1"></use>
                    <polygon id="Rectangle" fill="#ED1C24" mask="url(#mask-2)" points="57.4423077 73.3863583 94.2234148 6.93269231 96.9882012 8.46752016 60.2070941 74.9211861"></polygon>
                    <path d="M29.9300808,152.684722 C10.9555946,152.684722 -10.0428368,145.832579 -26.7403846,132.63586 L-13.0787545,111.825648 C1.34185497,122.73832 17.0274302,128.321548 30.6890603,128.321548 C43.8447041,128.321548 51.4344985,122.73832 51.4344985,113.348347 C51.4344985,103.450807 38.5318479,99.8978442 23.8582453,95.583532 C23.0992658,95.329749 22.3402864,95.0759659 21.5813069,94.8221828 C1.84784127,88.9851723 -20.1625627,80.8641142 -20.1625627,54.7244583 C-20.1625627,29.3461517 0.835868668,13.8653846 27.4001494,13.8653846 C44.0976972,13.8653846 62.313204,19.7023951 76.4808203,29.0923686 L64.3371492,50.9177123 C51.4344985,43.0504373 37.7728685,38.228559 26.6411699,38.228559 C14.7504919,38.228559 7.91967685,43.8117865 7.91967685,52.1866277 C7.91967685,61.3228181 20.8223275,65.3833471 35.4959301,70.2052254 C36.2549096,70.4590085 37.2668822,70.7127915 38.0258616,70.9665746 C57.5063341,77.0573682 79.5167381,85.9397755 79.5167381,110.556733 C79.5167381,138.726653 57.7593273,152.684722 29.9300808,152.684722 Z" id="Terminaisons-path" fill="#C3C3C3" fill-rule="nonzero" mask="url(#mask-2)"></path>
                </g>
                <mask id="mask-4" fill="white">
                    <use xlink:href="#path-3"></use>
                </mask>
                <use id="Mask-Copy" stroke="#979797" fill-rule="nonzero" xlink:href="#path-3"></use>
            </g>
        </g>
    </g>
</svg>