<?xml version="1.0" encoding="UTF-8"?>
<svg width="677px" height="84px" viewBox="0 0 677 84" version="1.1" xmlns="http://www.w3.org/2000/svg" xmlns:xlink="http://www.w3.org/1999/xlink">
    <!-- Generator: Sketch 52.6 (67491) - http://www.bohemiancoding.com/sketch -->
    <title>Group</title>
    <desc>Created with Sketch.</desc>
    <defs>
        <circle id="path-1" cx="35" cy="35" r="35"></circle>
        <circle id="path-3" cx="641" cy="35" r="35"></circle>
    </defs>
    <g id="Page-1" stroke="none" stroke-width="1" fill="none" fill-rule="evenodd">
        <g id="Frame-2-Copy" transform="translate(-243.000000, -428.000000)">
            <g id="Group" transform="translate(243.000000, 429.000000)">
                <g id="terminaisons" transform="translate(0.000000, 10.000000)" fill="#C3C3C3" fill-rule="nonzero">
                    <path d="M21.950486,71.8097826 L21.950486,13.6875 L0,13.6875 L0,2.38043478 L56.1616039,2.38043478 L56.1616039,13.6875 L34.2111179,13.6875 L34.2111179,71.8097826 L21.950486,71.8097826 Z M91.5592345,73 C76.4311968,73 64.7638214,61.9904891 64.7638214,45.625 C64.7638214,30.6480978 75.3435601,18.3491848 90.2738457,18.3491848 C106.885024,18.3491848 115.28949,31.4415761 115.28949,46.517663 C115.28949,47.3111413 115.190614,49.294837 115.091738,49.8899457 L76.727825,49.8899457 C78.0132139,58.419837 84.0446537,63.1807065 91.7569866,63.1807065 C97.5906744,63.1807065 101.743469,60.9986413 105.896264,56.9320652 L112.916464,63.1807065 C107.972661,69.1317935 101.150213,73 91.5592345,73 Z M76.628949,41.955163 L103.424362,41.955163 C102.633354,34.21875 98.0850547,28.1684783 90.1749696,28.1684783 C82.8581409,28.1684783 77.7165857,33.8220109 76.628949,41.955163 Z M127.352369,71.8097826 L127.352369,19.4402174 L139.316373,19.4402174 L139.316373,31.2432065 C142.579283,23.4076087 148.610723,18.0516304 157.806197,18.4483696 L157.806197,31.1440217 L157.114064,31.1440217 C146.633202,31.1440217 139.316373,37.9877717 139.316373,51.8736413 L139.316373,71.8097826 L127.352369,71.8097826 Z M168.188183,71.8097826 L168.188183,19.4402174 L180.152187,19.4402174 L180.152187,27.375 C183.513973,22.7133152 188.062272,18.3491848 196.071233,18.3491848 C203.585814,18.3491848 208.826245,22.0190217 211.594775,27.5733696 C215.846446,22.0190217 221.383505,18.3491848 229.293591,18.3491848 C240.664338,18.3491848 247.585662,25.5896739 247.585662,38.3845109 L247.585662,71.8097826 L235.621659,71.8097826 L235.621659,42.0543478 C235.621659,33.7228261 231.765492,29.2595109 225.04192,29.2595109 C218.5161,29.2595109 213.868925,33.8220109 213.868925,42.2527174 L213.868925,71.8097826 L201.904921,71.8097826 L201.904921,41.955163 C201.904921,33.8220109 197.949878,29.2595109 191.325182,29.2595109 C184.700486,29.2595109 180.152187,34.21875 180.152187,42.3519022 L180.152187,71.8097826 L168.188183,71.8097826 Z M262.318196,11.40625 L262.318196,0 L275.172084,0 L275.172084,11.40625 L262.318196,11.40625 Z M262.812576,71.8097826 L262.812576,19.4402174 L274.77658,19.4402174 L274.77658,71.8097826 L262.812576,71.8097826 Z M290.398998,71.8097826 L290.398998,19.4402174 L302.363001,19.4402174 L302.363001,27.5733696 C305.724787,22.6141304 310.569714,18.3491848 318.677552,18.3491848 C330.443803,18.3491848 337.266252,26.2839674 337.266252,38.4836957 L337.266252,71.8097826 L325.302248,71.8097826 L325.302248,42.0543478 C325.302248,33.9211957 321.248329,29.2595109 314.129253,29.2595109 C307.207928,29.2595109 302.363001,34.1195652 302.363001,42.2527174 L302.363001,71.8097826 L290.398998,71.8097826 Z M395.504253,71.8097826 L383.639125,71.8097826 L383.639125,65.3627717 C380.079587,69.6277174 374.641403,72.9008152 366.731318,72.9008152 C356.843712,72.9008152 348.142618,67.2472826 348.142618,56.5353261 C348.142618,44.9307065 357.14034,39.3763587 369.302096,39.3763587 C375.630164,39.3763587 379.684083,40.2690217 383.738001,41.5584239 L383.738001,40.5665761 C383.738001,33.326087 379.189702,29.3586957 370.884113,29.3586957 C365.050425,29.3586957 360.699878,30.6480978 355.953827,32.6317935 L352.690917,23.0108696 C358.425729,20.4320652 364.061665,18.6467391 372.565006,18.6467391 C387.989672,18.6467391 395.504253,26.7798913 395.504253,40.7649457 L395.504253,71.8097826 Z M383.935753,52.8654891 L383.935753,49.8899457 C380.870595,48.6997283 376.618925,47.8070652 371.97175,47.8070652 C364.457169,47.8070652 360.007746,50.8817935 360.007746,56.138587 C360.007746,61.0978261 364.457169,63.875 370.093104,63.875 C378.00319,63.875 383.935753,59.4116848 383.935753,52.8654891 Z M409.940158,11.40625 L409.940158,0 L422.794046,0 L422.794046,11.40625 L409.940158,11.40625 Z M410.434538,71.8097826 L410.434538,19.4402174 L422.398542,19.4402174 L422.398542,71.8097826 L410.434538,71.8097826 Z M455.917527,72.8016304 C448.501823,72.8016304 440.295109,70.1236413 433.769289,64.9660326 L439.108597,56.8328804 C444.744532,61.0978261 450.874848,63.2798913 456.214156,63.2798913 C461.355711,63.2798913 464.321993,61.0978261 464.321993,57.4279891 C464.321993,53.5597826 459.279313,52.1711957 453.544502,50.4850543 L452.654617,50.1875 C444.942284,47.90625 436.340067,44.732337 436.340067,34.5163043 C436.340067,24.5978261 444.54678,18.5475543 454.928767,18.5475543 C461.454587,18.5475543 468.573663,20.8288043 474.110723,24.4986413 L469.364672,33.0285326 C464.321993,29.9538043 458.982685,28.0692935 454.632139,28.0692935 C449.984964,28.0692935 447.31531,30.2513587 447.31531,33.5244565 C447.31531,37.0951087 452.357989,38.6820652 458.092801,40.5665761 C458.389429,40.6657609 458.784933,40.7649457 459.081561,40.8641304 C466.695018,43.2445652 475.297236,46.7160326 475.297236,56.3369565 C475.297236,67.3464674 466.793894,72.8016304 455.917527,72.8016304 Z M512.276883,73 C496.357837,73 484.591586,60.8002717 484.591586,45.7241848 C484.591586,30.7472826 496.456713,18.3491848 512.474635,18.3491848 C528.492558,18.3491848 540.258809,30.548913 540.258809,45.7241848 C540.258809,60.6019022 528.393682,73 512.276883,73 Z M512.474635,62.5855978 C522.16449,62.5855978 528.294806,54.9483696 528.294806,45.7241848 C528.294806,36.5 521.670109,28.8627717 512.276883,28.8627717 C502.685905,28.8627717 496.555589,36.4008152 496.555589,45.7241848 C496.555589,54.8491848 503.180286,62.5855978 512.474635,62.5855978 Z M552.420565,71.8097826 L552.420565,19.4402174 L564.384569,19.4402174 L564.384569,27.5733696 C567.746355,22.6141304 572.591282,18.3491848 580.699119,18.3491848 C592.465371,18.3491848 599.287819,26.2839674 599.287819,38.4836957 L599.287819,71.8097826 L587.323815,71.8097826 L587.323815,42.0543478 C587.323815,33.9211957 583.269897,29.2595109 576.15082,29.2595109 C569.229496,29.2595109 564.384569,34.1195652 564.384569,42.2527174 L564.384569,71.8097826 L552.420565,71.8097826 Z" id="Terminaisons"></path>
                </g>
                <polygon id="Rectangle" fill="#ED1C24" transform="translate(650.161109, 39.123091) rotate(-61.000000) translate(-650.161109, -39.123091) " points="635.31923 38.5145096 665.003769 38.4957909 665.002989 39.731672 635.31845 39.7503907"></polygon>
                <path d="M631.620292,82.8016304 C624.204587,82.8016304 615.997874,80.1236413 609.472053,74.9660326 L614.811361,66.8328804 C620.447296,71.0978261 626.577612,73.2798913 631.91692,73.2798913 C637.058475,73.2798913 640.024757,71.0978261 640.024757,67.4279891 C640.024757,63.5597826 634.982078,62.1711957 629.247266,60.4850543 C628.950638,60.3858696 628.65401,60.2866848 628.357382,60.1875 C620.645049,57.90625 612.042831,54.732337 612.042831,44.5163043 C612.042831,34.5978261 620.249544,28.5475543 630.631531,28.5475543 C637.157351,28.5475543 644.276428,30.8288043 649.813487,34.4986413 L645.067436,43.0285326 C640.024757,39.9538043 634.68545,38.0692935 630.334903,38.0692935 C625.687728,38.0692935 623.018074,40.2513587 623.018074,43.5244565 C623.018074,47.0951087 628.060753,48.6820652 633.795565,50.5665761 C634.092193,50.6657609 634.487697,50.7649457 634.784326,50.8641304 C642.397783,53.2445652 651,56.7160326 651,66.3369565 C651,77.3464674 642.496659,82.8016304 631.620292,82.8016304 Z" id="Terminaisons-path" fill="#C3C3C3" fill-rule="nonzero"></path>
                <g id="Rectangle-+-Terminaisons-path-Mask" transform="translate(606.000000, 0.000000)">
                    <mask id="mask-2" fill="white">
                        <use xlink:href="#path-1"></use>
                    </mask>
                    <use id="Mask" fill="#FFFFFF" fill-rule="nonzero" xlink:href="#path-1"></use>
                    <polygon id="Rectangle" fill="#ED1C24" mask="url(#mask-2)" points="39.0384615 49.8742241 64.0353304 4.71153846 65.9143115 5.75462535 40.9174426 50.9173109"></polygon>
                    <path d="M20.3408316,103.766316 C7.44554976,103.766316 -6.82522886,99.1095199 -18.1730769,90.1408756 L-8.88847396,75.9980134 C0.911940269,83.4143923 11.57204,87.2088188 20.8566429,87.2088188 C29.7973717,87.2088188 34.9554844,83.4143923 34.9554844,77.032857 C34.9554844,70.3063738 26.1866928,67.8917388 16.2143414,64.959682 C15.6985302,64.787208 15.1827189,64.6147341 14.6669076,64.4422602 C1.25581445,60.4753598 -13.7027125,54.9561941 -13.7027125,37.1913794 C-13.7027125,19.9439866 0.568066085,9.42307692 18.6214607,9.42307692 C29.9693088,9.42307692 42.3487794,13.3899773 51.9772565,19.7715126 L43.7242761,34.6042705 C34.9554844,29.2575787 25.6708815,25.9805741 18.1056495,25.9805741 C10.0246061,25.9805741 5.38230466,29.7750005 5.38230466,35.4666402 C5.38230466,41.6757016 14.1510963,44.4352845 24.1234477,47.7122891 C24.6392589,47.884763 25.3270073,48.057237 25.8428186,48.2297109 C39.0819747,52.3690852 54.0405016,58.4056727 54.0405016,75.1356438 C54.0405016,94.2802499 39.2539117,103.766316 20.3408316,103.766316 Z" id="Terminaisons-path" fill="#C3C3C3" fill-rule="nonzero" mask="url(#mask-2)"></path>
                </g>
                <mask id="mask-4" fill="white">
                    <use xlink:href="#path-3"></use>
                </mask>
                <use id="Mask-Copy" stroke="#979797" fill-rule="nonzero" xlink:href="#path-3"></use>
            </g>
        </g>
    </g>
</svg>