<?xml version="1.0" encoding="UTF-8"?>
<svg width="837px" height="125px" viewBox="0 0 837 125" version="1.1" xmlns="http://www.w3.org/2000/svg" xmlns:xlink="http://www.w3.org/1999/xlink">
    <!-- Generator: Sketch 52.6 (67491) - http://www.bohemiancoding.com/sketch -->
    <title>Group</title>
    <desc>Created with Sketch.</desc>
    <defs>
        <circle id="path-1" cx="51.5" cy="51.5" r="51.5"></circle>
        <circle id="path-3" cx="885.5" cy="51.5" r="51.5"></circle>
    </defs>
    <g id="Page-1" stroke="none" stroke-width="1" fill="none" fill-rule="evenodd">
        <g id="Frame-2-Copy" transform="translate(-321.000000, -24.000000)">
            <g id="Group" transform="translate(220.000000, 25.000000)">
                <path d="M124.05,122 L124.05,63.4 L101.85,63.4 L101.85,52 L158.65,52 L158.65,63.4 L136.45,63.4 L136.45,122 L124.05,122 Z M171.65,122 L171.65,52 L223.55,52 L223.55,63 L183.95,63 L183.95,81.2 L219.05,81.2 L219.05,92.2 L183.95,92.2 L183.95,111 L224.05,111 L224.05,122 L171.65,122 Z M238.65,122 L238.65,52 L269.85,52 C286.25,52 295.85,60.8 295.85,74.3 C295.85,85.8 288.95,92.7 279.15,95.5 L298.05,122 L283.55,122 L266.15,97.6 L250.95,97.6 L250.95,122 L238.65,122 Z M250.95,86.7 L268.95,86.7 C277.75,86.7 283.35,82.1 283.35,74.8 C283.35,67.3 277.95,63.2 268.85,63.2 L250.95,63.2 L250.95,86.7 Z M310.95,122 L310.95,52 L324.05,52 L345.35,85.1 L366.65,52 L379.75,52 L379.75,122 L367.45,122 L367.45,71.8 L345.35,104.8 L344.95,104.8 L323.05,72 L323.05,122 L310.95,122 Z M398.45,122 L398.45,52 L410.75,52 L410.75,122 L398.45,122 Z M429.45,122 L429.45,52 L440.85,52 L478.35,100.4 L478.35,52 L490.45,52 L490.45,122 L480.15,122 L441.55,72.2 L441.55,122 L429.45,122 Z M502.45,122 L533.25,51.5 L544.65,51.5 L575.45,122 L562.45,122 L555.35,105.1 L522.25,105.1 L515.05,122 L502.45,122 Z M526.75,94.2 L550.85,94.2 L538.75,66.2 L526.75,94.2 Z M588.15,122 L588.15,52 L600.45,52 L600.45,122 L588.15,122 Z M643.65,123 C632.95,123 622.85,119.3 614.45,111.8 L621.85,103 C628.55,108.8 635.25,112.1 643.95,112.1 C651.55,112.1 656.35,108.6 656.35,103.1 C656.35,98.1 653.55,95.4 640.55,92.3 C625.65,88.8 617.25,84.4 617.25,71.3 C617.25,59.3 627.25,51 641.15,51 C651.35,51 659.45,54.1 666.55,59.8 L659.95,69.1 C653.65,64.4 647.35,61.9 640.95,61.9 C633.75,61.9 629.55,65.6 629.55,70.4 C629.55,75.8 632.75,78.2 646.15,81.4 C660.95,85 668.65,90.3 668.65,102.1 C668.65,115.2 658.35,123 643.65,123 Z M716.55,123.2 C695.05,123.2 680.05,106.9 680.05,87 C680.05,67.3 695.25,50.8 716.75,50.8 C738.25,50.8 753.25,67.1 753.25,87 C753.25,106.7 738.05,123.2 716.55,123.2 Z M716.75,111.9 C730.65,111.9 740.35,100.8 740.35,87 C740.35,73.4 730.45,62.1 716.55,62.1 C702.65,62.1 692.95,73.2 692.95,87 C692.95,100.6 702.85,111.9 716.75,111.9 Z M768.15,122 L768.15,52 L779.55,52 L817.05,100.4 L817.05,52 L829.15,52 L829.15,122 L818.85,122 L780.25,72.2 L780.25,122 L768.15,122 Z M871.65,123 C860.95,123 850.85,119.3 842.45,111.8 L849.85,103 C856.55,108.8 863.25,112.1 871.95,112.1 C879.55,112.1 884.35,108.6 884.35,103.1 C884.35,98.1 881.55,95.4 868.55,92.3 C853.65,88.8 845.25,84.4 845.25,71.3 C845.25,59.3 855.25,51 869.15,51 C879.35,51 887.45,54.1 894.55,59.8 L887.95,69.1 C881.65,64.4 875.35,61.9 868.95,61.9 C861.75,61.9 857.55,65.6 857.55,70.4 C857.55,75.8 860.75,78.2 874.15,81.4 C888.95,85 896.65,90.3 896.65,102.1 C896.65,115.2 886.35,123 871.65,123 Z" id="Terminaisons" fill="#C3C3C3"></path>
                <g id="Rectangle-+-Terminaisons-path-Mask" transform="translate(834.000000, 0.000000)">
                    <mask id="mask-2" fill="white">
                        <use xlink:href="#path-1"></use>
                    </mask>
                    <use id="Mask" fill="#FFFFFF" fill-rule="nonzero" xlink:href="#path-1"></use>
                    <polygon id="Rectangle" fill="#ED1C24" mask="url(#mask-2)" points="57.4423077 73.3863583 94.2234148 6.93269231 96.9882012 8.46752016 60.2070941 74.9211861"></polygon>
                    <path d="M29.9300808,152.684722 C10.9555946,152.684722 -10.0428368,145.832579 -26.7403846,132.63586 L-13.0787545,111.825648 C1.34185497,122.73832 17.0274302,128.321548 30.6890603,128.321548 C43.8447041,128.321548 51.4344985,122.73832 51.4344985,113.348347 C51.4344985,103.450807 38.5318479,99.8978442 23.8582453,95.583532 C23.0992658,95.329749 22.3402864,95.0759659 21.5813069,94.8221828 C1.84784127,88.9851723 -20.1625627,80.8641142 -20.1625627,54.7244583 C-20.1625627,29.3461517 0.835868668,13.8653846 27.4001494,13.8653846 C44.0976972,13.8653846 62.313204,19.7023951 76.4808203,29.0923686 L64.3371492,50.9177123 C51.4344985,43.0504373 37.7728685,38.228559 26.6411699,38.228559 C14.7504919,38.228559 7.91967685,43.8117865 7.91967685,52.1866277 C7.91967685,61.3228181 20.8223275,65.3833471 35.4959301,70.2052254 C36.2549096,70.4590085 37.2668822,70.7127915 38.0258616,70.9665746 C57.5063341,77.0573682 79.5167381,85.9397755 79.5167381,110.556733 C79.5167381,138.726653 57.7593273,152.684722 29.9300808,152.684722 Z" id="Terminaisons-path" fill="#C3C3C3" fill-rule="nonzero" mask="url(#mask-2)"></path>
                </g>
                <mask id="mask-4" fill="white">
                    <use xlink:href="#path-3"></use>
                </mask>
                <use id="Mask-Copy" stroke="#979797" fill-rule="nonzero" xlink:href="#path-3"></use>
            </g>
        </g>
    </g>
</svg>