<?xml version="1.0" encoding="UTF-8"?>
<svg width="664px" height="72px" viewBox="0 0 664 72" version="1.1" xmlns="http://www.w3.org/2000/svg" xmlns:xlink="http://www.w3.org/1999/xlink">
    <!-- Generator: Sketch 52.6 (67491) - http://www.bohemiancoding.com/sketch -->
    <title>Typetester</title>
    <desc>Created with Sketch.</desc>
    <g id="Page-1" stroke="none" stroke-width="1" fill="none" fill-rule="evenodd">
        <g id="Frame-6" transform="translate(-389.000000, -101.000000)" fill="#C3C3C3">
            <path d="M424.55,113.4 L424.55,172 L412.15,172 L412.15,113.4 L389.95,113.4 L389.95,102 L446.75,102 L446.75,113.4 L424.55,113.4 Z M492.75,144.1 L492.75,172 L480.35,172 L480.35,144.4 L452.55,102 L467.05,102 L486.65,133 L506.45,102 L520.55,102 L492.75,144.1 Z M585.55,125.5 C585.55,129.433353 584.816674,132.899985 583.35,135.9 C581.883326,138.900015 579.883346,141.39999 577.35,143.4 C574.816654,145.40001 571.850017,146.916662 568.45,147.95 C565.049983,148.983339 561.416686,149.5 557.55,149.5 L543.65,149.5 L543.65,172 L531.35,172 L531.35,102 L558.95,102 C563.016687,102 566.699984,102.549994 570,103.65 C573.300017,104.750005 576.099989,106.333323 578.4,108.4 C580.700012,110.466677 582.46666,112.933319 583.7,115.8 C584.93334,118.666681 585.55,121.899982 585.55,125.5 Z M573.05,125.8 C573.05,121.599979 571.683347,118.45001 568.95,116.35 C566.216653,114.249989 562.550023,113.2 557.95,113.2 L543.65,113.2 L543.65,138.4 L557.95,138.4 C562.61669,138.4 566.299987,137.250011 569,134.95 C571.700014,132.649989 573.05,129.600019 573.05,125.8 Z M650.05,102 L650.05,113 L610.45,113 L610.45,131.2 L645.55,131.2 L645.55,142.2 L610.45,142.2 L610.45,161 L650.55,161 L650.55,172 L598.15,172 L598.15,102 L650.05,102 Z M694.75,113.4 L694.75,172 L682.35,172 L682.35,113.4 L660.15,113.4 L660.15,102 L716.95,102 L716.95,113.4 L694.75,113.4 Z M781.85,102 L781.85,113 L742.25,113 L742.25,131.2 L777.35,131.2 L777.35,142.2 L742.25,142.2 L742.25,161 L782.35,161 L782.35,172 L729.95,172 L729.95,102 L781.85,102 Z M807.35,120.3 C807.35,121.700007 807.583331,122.899995 808.05,123.9 C808.516669,124.900005 809.36666,125.833329 810.6,126.7 C811.83334,127.566671 813.533323,128.366663 815.7,129.1 C817.866678,129.833337 820.61665,130.599996 823.95,131.4 C827.616685,132.333338 830.866652,133.366661 833.7,134.5 C836.533347,135.633339 838.883324,137.016659 840.75,138.65 C842.616676,140.283342 844.033329,142.183322 845,144.35 C845.966672,146.516678 846.45,149.066652 846.45,152 C846.45,155.33335 845.833339,158.299987 844.6,160.9 C843.366661,163.500013 841.650011,165.699991 839.45,167.5 C837.249989,169.300009 834.616682,170.666662 831.55,171.6 C828.483318,172.533338 825.116685,173 821.45,173 C816.049973,173 810.883358,172.083343 805.95,170.25 C801.016642,168.416657 796.450021,165.600019 792.25,161.8 L799.65,153 C803.050017,155.933348 806.483316,158.183325 809.95,159.75 C813.416684,161.316675 817.349978,162.1 821.75,162.1 C825.550019,162.1 828.566656,161.300008 830.8,159.7 C833.033345,158.099992 834.15,155.933347 834.15,153.2 C834.15,151.933327 833.933336,150.800005 833.5,149.8 C833.066665,148.799995 832.266673,147.883337 831.1,147.05 C829.933328,146.216662 828.333344,145.433337 826.3,144.7 C824.266657,143.966663 821.616683,143.200004 818.35,142.4 C814.616648,141.533329 811.300014,140.566672 808.4,139.5 C805.499986,138.433328 803.066677,137.100008 801.1,135.5 C799.133324,133.899992 797.633339,131.966678 796.6,129.7 C795.566662,127.433322 795.05,124.666683 795.05,121.4 C795.05,118.333318 795.649994,115.550012 796.85,113.05 C798.050006,110.549988 799.69999,108.400009 801.8,106.6 C803.900011,104.799991 806.416652,103.416672 809.35,102.45 C812.283348,101.483328 815.483316,101 818.95,101 C824.083359,101 828.69998,101.749992 832.8,103.25 C836.90002,104.750008 840.749982,106.933319 844.35,109.8 L837.75,119.1 C834.549984,116.766655 831.383349,114.983339 828.25,113.75 C825.116651,112.516661 821.950016,111.9 818.75,111.9 C815.149982,111.9 812.35001,112.716658 810.35,114.35 C808.34999,115.983341 807.35,117.966655 807.35,120.3 Z M890.55,113.4 L890.55,172 L878.15,172 L878.15,113.4 L855.95,113.4 L855.95,102 L912.75,102 L912.75,113.4 L890.55,113.4 Z M977.65,102 L977.65,113 L938.05,113 L938.05,131.2 L973.15,131.2 L973.15,142.2 L938.05,142.2 L938.05,161 L978.15,161 L978.15,172 L925.75,172 L925.75,102 L977.65,102 Z M1052.15,172 L1037.65,172 L1020.45,147.6 L1005.05,147.6 L1005.05,172 L992.75,172 L992.75,102 L1023.95,102 C1027.95002,102 1031.56665,102.516661 1034.8,103.55 C1038.03335,104.583338 1040.76666,106.049991 1043,107.95 C1045.23334,109.850009 1046.94999,112.183319 1048.15,114.95 C1049.35001,117.71668 1049.95,120.799983 1049.95,124.2 C1049.95,127.133348 1049.53334,129.749989 1048.7,132.05 C1047.86666,134.350011 1046.71667,136.383325 1045.25,138.15 C1043.78333,139.916675 1042.03334,141.416661 1040,142.65 C1037.96666,143.88334 1035.71668,144.83333 1033.25,145.5 L1052.15,172 Z M1037.45,124.9 C1037.45,121.033314 1036.18335,118.116676 1033.65,116.15 C1031.11665,114.183324 1027.55002,113.2 1022.95,113.2 L1005.05,113.2 L1005.05,136.7 L1023.05,136.7 C1027.45002,136.7 1030.94999,135.633344 1033.55,133.5 C1036.15001,131.366656 1037.45,128.500018 1037.45,124.9 Z" id="Typetester"></path>
        </g>
    </g>
</svg>