<?xml version="1.0" encoding="UTF-8"?>
<svg width="654px" height="74px" viewBox="0 0 654 74" version="1.1" xmlns="http://www.w3.org/2000/svg" xmlns:xlink="http://www.w3.org/1999/xlink">
    <!-- Generator: Sketch 52.6 (67491) - http://www.bohemiancoding.com/sketch -->
    <title>Utilisation</title>
    <desc>Created with Sketch.</desc>
    <g id="Page-1" stroke="none" stroke-width="1" fill="none" fill-rule="evenodd">
        <g id="Frame-5" transform="translate(-392.000000, -810.000000)" fill="#C3C3C3">
            <path d="M422.55,883.1 C404.35,883.1 392.75,872.6 392.75,852.3 L392.75,812 L405.05,812 L405.05,851.8 C405.05,864.8 411.75,871.8 422.75,871.8 C433.65,871.8 440.35,865.2 440.35,852.3 L440.35,812 L452.65,812 L452.65,851.7 C452.65,872.6 440.85,883.1 422.55,883.1 Z M486.75,882 L486.75,823.4 L464.55,823.4 L464.55,812 L521.35,812 L521.35,823.4 L499.15,823.4 L499.15,882 L486.75,882 Z M535.05,882 L535.05,812 L547.35,812 L547.35,882 L535.05,882 Z M566.05,882 L566.05,812 L578.35,812 L578.35,870.8 L615.15,870.8 L615.15,882 L566.05,882 Z M628.65,882 L628.65,812 L640.95,812 L640.95,882 L628.65,882 Z M684.15,883 C673.45,883 663.35,879.3 654.95,871.8 L662.35,863 C669.05,868.8 675.75,872.1 684.45,872.1 C692.05,872.1 696.85,868.6 696.85,863.1 C696.85,858.1 694.05,855.4 681.05,852.3 C666.15,848.8 657.75,844.4 657.75,831.3 C657.75,819.3 667.75,811 681.65,811 C691.85,811 699.95,814.1 707.05,819.8 L700.45,829.1 C694.15,824.4 687.85,821.9 681.45,821.9 C674.25,821.9 670.05,825.6 670.05,830.4 C670.05,835.8 673.25,838.2 686.65,841.4 C701.45,845 709.15,850.3 709.15,862.1 C709.15,875.2 698.85,883 684.15,883 Z M717.65,882 L748.45,811.5 L759.85,811.5 L790.65,882 L777.65,882 L770.55,865.1 L737.45,865.1 L730.25,882 L717.65,882 Z M741.95,854.2 L766.05,854.2 L753.95,826.2 L741.95,854.2 Z M819.85,882 L819.85,823.4 L797.65,823.4 L797.65,812 L854.45,812 L854.45,823.4 L832.25,823.4 L832.25,882 L819.85,882 Z M868.15,882 L868.15,812 L880.45,812 L880.45,882 L868.15,882 Z M932.55,883.2 C911.05,883.2 896.05,866.9 896.05,847 C896.05,827.3 911.25,810.8 932.75,810.8 C954.25,810.8 969.25,827.1 969.25,847 C969.25,866.7 954.05,883.2 932.55,883.2 Z M932.75,871.9 C946.65,871.9 956.35,860.8 956.35,847 C956.35,833.4 946.45,822.1 932.55,822.1 C918.65,822.1 908.95,833.2 908.95,847 C908.95,860.6 918.85,871.9 932.75,871.9 Z M984.15,882 L984.15,812 L995.55,812 L1033.05,860.4 L1033.05,812 L1045.15,812 L1045.15,882 L1034.85,882 L996.25,832.2 L996.25,882 L984.15,882 Z" id="Utilisation"></path>
        </g>
    </g>
</svg>