<?xml version="1.0" encoding="UTF-8"?>
<svg width="653px" height="677px" viewBox="0 0 653 677" version="1.1" xmlns="http://www.w3.org/2000/svg" xmlns:xlink="http://www.w3.org/1999/xlink">
    <!-- Generator: Sketch 53 (72520) - https://sketchapp.com -->
    <title>Group 2</title>
    <desc>Created with Sketch.</desc>
    <g id="Page-1" stroke="none" stroke-width="1" fill="none" fill-rule="evenodd">
        <g id="Frame-4-v2-Copy" transform="translate(-392.000000, -235.000000)" fill="#212121">
            <g id="Group-2" transform="translate(392.000000, 235.000000)">
                <g id="Group">
                    <path d="M38.7194344,58.920523 C21.7584021,58.920523 12,45.8182503 12,30.3337463 L12,30.1749309 C12,15.3256886 22.3005356,1.42933883 38.796882,1.42933883 C47.0837791,1.42933883 52.1953231,3.97038564 57.6166576,8.57603299 L56.5323907,9.92596411 C51.4982943,5.71735533 46.464198,3.01749309 38.7194344,3.01749309 C23.4622501,3.01749309 13.703848,16.3579889 13.703848,30.0955232 L13.703848,30.2543386 C13.703848,44.7065423 22.9975643,57.3323687 38.796882,57.3323687 C46.8514362,57.3323687 53.5119329,53.6796139 58.0813434,49.7092283 L58.0813434,31.8424929 L38.0998533,31.8424929 L38.0998533,30.0955232 L59.7851914,30.0955232 L59.7851914,50.34449 C54.6736474,55.1089527 47.4710173,58.920523 38.7194344,58.920523 Z M91.2289316,58.920523 C79.1471004,58.920523 71.0925462,49.3915974 71.0925462,38.2745176 L71.0925462,38.1157022 C71.0925462,26.9986224 79.0696527,17.3108814 91.2289316,17.3108814 C103.310763,17.3108814 111.365317,26.839807 111.365317,37.9568868 L111.365317,38.1157022 C111.365317,49.232782 103.38821,58.920523 91.2289316,58.920523 Z M91.3063792,57.3323687 C102.226496,57.3323687 109.661469,48.5975203 109.661469,38.1951099 L109.661469,38.0362945 C109.661469,27.6338841 101.994153,18.8990357 91.1514839,18.8990357 C80.2313673,18.8990357 72.7963942,27.6338841 72.7963942,38.0362945 L72.7963942,38.1951099 C72.7963942,48.5975203 80.4637102,57.3323687 91.3063792,57.3323687 Z M134.986846,58.6822998 C128.558692,58.6822998 125.073548,54.7119142 125.073548,47.8034432 L125.073548,19.7725205 L118.955185,19.7725205 L118.955185,18.263774 L125.073548,18.263774 L125.073548,4.52623963 L126.699949,4.52623963 L126.699949,18.263774 L141.027761,18.263774 L141.027761,19.7725205 L126.699949,19.7725205 L126.699949,47.6446277 C126.699949,53.6002062 129.488064,57.0941456 134.986846,57.0941456 C136.923037,57.0941456 139.014123,56.6176993 140.872866,55.6648067 L140.872866,57.4117764 C139.014123,58.2852612 137.000484,58.6822998 134.986846,58.6822998 Z M151.870431,57.9676304 L151.870431,-1.27897692e-13 L153.496831,-1.27897692e-13 L153.496831,29.1426306 C154.735993,24.2987601 159.847537,17.3108814 169.063806,17.3108814 C179.519237,17.3108814 185.327809,24.5369833 185.327809,35.4952477 L185.327809,57.9676304 L183.701409,57.9676304 L183.701409,35.6540631 C183.701409,25.728099 178.667313,18.8990357 168.90891,18.8990357 C160.312223,18.8990357 153.496831,26.4427684 153.496831,35.9716939 L153.496831,57.9676304 L151.870431,57.9676304 Z M210.1885,58.920523 C202.598632,58.920523 195.705792,54.8707296 195.705792,47.009366 L195.705792,46.8505506 C195.705792,38.5127407 203.295661,34.2247242 212.976615,34.2247242 C218.39795,34.2247242 223.664389,35.2570245 227.536771,36.6863633 L227.536771,33.3512394 C227.536771,23.7429061 221.960541,19.2166665 212.899168,19.2166665 C208.097414,19.2166665 204.070137,20.5665976 200.04286,22.5517905 L199.423279,21.1224516 C203.682899,18.9784434 207.942519,17.6285123 212.976615,17.6285123 C218.320502,17.6285123 222.502674,19.0578511 225.368237,21.9959365 C227.769114,24.4575756 229.163171,28.3485535 229.163171,33.2718317 L229.163171,57.9676304 L227.536771,57.9676304 L227.536771,48.5975203 C225.91037,53.2031676 220.101798,58.920523 210.1885,58.920523 Z M210.265948,57.3323687 C220.643931,57.3323687 227.536771,50.5033054 227.536771,43.4360189 L227.536771,38.3539253 C223.432046,36.7657711 218.940083,35.8128785 213.054063,35.8128785 C204.30248,35.8128785 197.40964,39.4656333 197.40964,46.7711429 L197.40964,46.9299583 C197.40964,53.917837 203.450556,57.3323687 210.265948,57.3323687 Z M242.793955,57.9676304 L242.793955,18.263774 L244.420355,18.263774 L244.420355,28.4279612 C245.58207,23.3458676 250.848509,17.3108814 257.818796,17.3108814 C266.260589,17.3108814 270.520209,22.7106059 271.914266,29.1426306 C273.385771,23.4252753 278.807106,17.3108814 285.777393,17.3108814 C294.374081,17.3108814 300.337549,23.1870522 300.337549,34.4629474 L300.337549,57.9676304 L298.711148,57.9676304 L298.711148,34.6217628 C298.711148,24.2987601 293.367261,18.8990357 285.699945,18.8990357 C279.039449,18.8990357 272.378952,25.728099 272.378952,34.7805782 L272.378952,57.9676304 L270.752552,57.9676304 L270.752552,34.6217628 C270.752552,24.2987601 265.408665,18.8990357 257.741349,18.8990357 C251.080852,18.8990357 244.420355,25.728099 244.420355,34.7805782 L244.420355,57.9676304 L242.793955,57.9676304 Z" id="Gotham"></path>
                    <path d="M37.9517773,146.920523 C20.9132974,146.920523 11,133.897658 11,118.333746 L11,118.174931 C11,103.246281 21.4554309,89.4293388 37.796882,89.4293388 C46.316122,89.4293388 51.5825612,92.0497934 57.0038957,96.6554407 L55.3000478,98.7200412 C50.575742,94.6702479 45.6190933,91.8909779 37.6419868,91.8909779 C23.2367265,91.8909779 13.7106673,104.437397 13.7106673,118.095523 L13.7106673,118.254339 C13.7106673,132.627135 22.7720407,144.538292 38.0292249,144.538292 C45.6190933,144.538292 52.2021423,141.12376 56.5392099,137.391597 L56.5392099,120.318939 L37.2547486,120.318939 L37.2547486,117.698485 L59.0949819,117.698485 L59.0949819,138.423898 C54.0608856,143.108953 46.7033602,146.920523 37.9517773,146.920523 Z M90.4612745,146.920523 C78.5343385,146.920523 70.2474415,137.31219 70.2474415,126.115702 L70.2474415,125.956887 C70.2474415,114.760399 78.5343385,104.993251 90.5387221,104.993251 C102.465658,104.993251 110.675107,114.601584 110.675107,125.798071 L110.675107,125.956887 C110.675107,137.153374 102.465658,146.920523 90.4612745,146.920523 Z M90.5387221,144.538292 C100.839258,144.538292 108.041888,136.121074 108.041888,126.036294 L108.041888,125.877479 C108.041888,115.7927 100.529467,107.375482 90.3838268,107.375482 C80.0832913,107.375482 72.9581088,115.7927 72.9581088,125.877479 L72.9581088,126.036294 C72.9581088,136.121074 80.3930818,144.538292 90.5387221,144.538292 Z M134.761322,146.6823 C128.488064,146.6823 124.383339,142.950137 124.383339,135.724035 L124.383339,108.248967 L118.419871,108.248967 L118.419871,105.946143 L124.383339,105.946143 L124.383339,92.5262396 L126.861663,92.5262396 L126.861663,105.946143 L141.034581,105.946143 L141.034581,108.248967 L126.861663,108.248967 L126.861663,135.485812 C126.861663,141.361983 129.882121,144.300068 134.993665,144.300068 C136.929856,144.300068 138.866047,143.823622 140.879685,142.87073 L140.879685,145.332369 C138.943495,146.285261 136.929856,146.6823 134.761322,146.6823 Z M152.032145,145.96763 L152.032145,88 L154.510469,88 L154.510469,115.475069 C156.291765,110.710606 161.170966,104.993251 169.535311,104.993251 C179.835846,104.993251 185.644419,112.139945 185.644419,122.542355 L185.644419,145.96763 L183.166095,145.96763 L183.166095,122.939394 C183.166095,113.648691 178.286894,107.375482 169.22552,107.375482 C161.016071,107.375482 154.510469,114.283953 154.510469,123.41584 L154.510469,145.96763 L152.032145,145.96763 Z M210.814901,146.920523 C203.30248,146.920523 196.022402,142.791322 196.022402,134.691735 L196.022402,134.53292 C196.022402,126.19511 203.379928,121.66887 213.293225,121.66887 C218.71456,121.66887 223.438865,122.621763 227.2338,123.892286 L227.2338,121.192424 C227.2338,112.139945 221.96736,107.693113 213.293225,107.693113 C208.491472,107.693113 204.464195,109.043044 200.591813,111.028237 L199.662441,108.804821 C203.999509,106.660813 208.259129,105.310881 213.44812,105.310881 C218.792007,105.310881 222.97418,106.74022 225.839742,109.678306 C228.318066,112.29876 229.712124,116.11033 229.712124,121.033609 L229.712124,145.96763 L227.2338,145.96763 L227.2338,137.629821 C225.220161,141.997245 219.798826,146.920523 210.814901,146.920523 Z M210.969796,144.538292 C220.418408,144.538292 227.311247,138.34449 227.311247,131.197796 L227.311247,126.274518 C223.516313,125.003994 219.02435,124.051102 213.215777,124.051102 C204.61909,124.051102 198.655622,127.783264 198.655622,134.374104 L198.655622,134.53292 C198.655622,141.12376 204.464195,144.538292 210.969796,144.538292 Z M243.342908,145.96763 L243.342908,105.946143 L245.821232,105.946143 L245.821232,114.919215 C247.52508,110.23416 252.171938,104.993251 259.142226,104.993251 C266.964437,104.993251 271.224057,109.837121 272.927905,115.554476 C274.864096,110.313567 279.820744,104.993251 286.945927,104.993251 C295.852405,104.993251 301.738425,111.187052 301.738425,122.065909 L301.738425,145.96763 L299.260101,145.96763 L299.260101,122.304132 C299.260101,112.616391 294.303452,107.375482 286.791032,107.375482 C280.130535,107.375482 273.779829,113.569284 273.779829,122.621763 L273.779829,145.96763 L271.301504,145.96763 L271.301504,122.224724 C271.301504,112.695799 266.267408,107.375482 258.909883,107.375482 C252.094491,107.375482 245.821232,114.04573 245.821232,122.701171 L245.821232,145.96763 L243.342908,145.96763 Z" id="Gotham-Copy-2"></path>
                    <path d="M57.5596677,225.582713 C52.6804667,230.029545 45.0905983,233.920523 36.2615679,233.920523 C19.1456403,233.920523 9,220.977066 9,205.333746 L9,205.174931 C9,190.166873 19.6103261,176.429339 35.796882,176.429339 C44.6259125,176.429339 50.2021423,179.129201 55.6234768,183.734848 L52.9902572,186.831749 C48.7306372,183.020179 43.7739885,180.161501 35.5645391,180.161501 C22.398441,180.161501 13.1821723,191.596212 13.1821723,205.016115 L13.1821723,205.174931 C13.1821723,219.547727 21.9337552,230.267768 36.4164631,230.267768 C43.3093027,230.267768 49.7374565,227.329683 53.6872859,223.915151 L53.6872859,207.954201 L35.5645391,207.954201 L35.5645391,204.142631 L57.5596677,204.142631 L57.5596677,225.582713 Z M109.139793,212.718664 C109.139793,224.073967 100.543106,233.920523 88.771065,233.920523 C77.076472,233.920523 68.557232,224.232782 68.557232,212.877479 L68.557232,212.718664 C68.557232,201.363361 77.1539196,191.516804 88.9259603,191.516804 C100.620553,191.516804 109.139793,201.204545 109.139793,212.559848 L109.139793,212.718664 Z M105.035069,212.877479 L105.035069,212.718664 C105.035069,202.951515 97.9098861,195.169559 88.771065,195.169559 C79.3999011,195.169559 72.6619567,203.030923 72.6619567,212.559848 L72.6619567,212.718664 C72.6619567,222.485812 79.7871392,230.267768 88.9259603,230.267768 C98.2971242,230.267768 105.035069,222.406405 105.035069,212.877479 Z M140.428638,232.252961 C138.415,233.205854 136.478809,233.6823 134.000484,233.6823 C127.882121,233.6823 122.925472,230.267768 122.925472,222.56522 L122.925472,196.043044 L117.194347,196.043044 L117.194347,192.469697 L122.925472,192.469697 L122.925472,179.52624 L126.720407,179.52624 L126.720407,192.469697 L140.583533,192.469697 L140.583533,196.043044 L126.720407,196.043044 L126.720407,222.168181 C126.720407,227.964944 130.050655,230.029545 134.620065,230.029545 C136.556256,230.029545 138.182657,229.632506 140.428638,228.600206 L140.428638,232.252961 Z M185.658058,232.96763 L181.863123,232.96763 L181.863123,208.907093 C181.863123,200.569284 177.293713,195.090151 169.316606,195.090151 C161.571843,195.090151 155.608375,201.125138 155.608375,209.542355 L155.608375,232.96763 L151.813441,232.96763 L151.813441,175 L155.608375,175 L155.608375,200.01343 C158.241594,195.248967 162.65611,191.516804 169.85874,191.516804 C179.849485,191.516804 185.658058,198.504683 185.658058,208.192424 L185.658058,232.96763 Z M230.113001,232.96763 L226.395514,232.96763 L226.395514,226.217975 C223.684847,230.108953 218.805646,233.920523 211.293225,233.920523 C203.9357,233.920523 196.036041,229.632506 196.036041,221.215289 L196.036041,221.056473 C196.036041,212.639256 203.083776,207.874793 213.306864,207.874793 C218.805646,207.874793 222.60058,208.589463 226.395514,209.621763 L226.395514,207.874793 C226.395514,199.695799 221.516313,195.48719 213.384311,195.48719 C208.582558,195.48719 204.632728,196.837121 200.992689,198.742906 L199.598632,195.328374 C203.9357,193.263774 208.19532,191.834435 213.616654,191.834435 C223.762294,191.834435 230.113001,197.23416 230.113001,207.715978 L230.113001,232.96763 Z M226.472962,217.800757 L226.472962,213.19511 C223.142713,212.321625 218.728198,211.368732 213.074521,211.368732 C204.710176,211.368732 200.063318,215.180303 200.063318,220.81825 L200.063318,220.977066 C200.063318,226.853237 205.484652,230.267768 211.525568,230.267768 C219.580122,230.267768 226.472962,225.185675 226.472962,217.800757 Z M303.455912,232.96763 L299.660978,232.96763 L299.660978,208.907093 C299.660978,200.172245 295.246462,195.090151 287.966385,195.090151 C281.305888,195.090151 275.497315,200.33106 275.497315,209.38354 L275.497315,232.96763 L271.702381,232.96763 L271.702381,208.66887 C271.702381,200.251653 267.210418,195.090151 260.162683,195.090151 C253.114948,195.090151 247.538719,201.442768 247.538719,209.621763 L247.538719,232.96763 L243.743785,232.96763 L243.743785,192.469697 L247.538719,192.469697 L247.538719,199.695799 C250.094491,195.48719 253.657082,191.516804 260.704817,191.516804 C267.597656,191.516804 271.857276,195.566598 274.02581,200.251653 C276.581582,195.725413 280.841202,191.516804 288.276175,191.516804 C297.647339,191.516804 303.455912,198.26646 303.455912,208.430647 L303.455912,232.96763 Z" id="Gotham-Copy-4"></path>
                    <path d="M57.3341441,313.423898 C54.8041753,315.753202 51.6933931,317.75161 48.001704,319.41918 C44.3100149,321.08675 40.1666078,321.920523 35.5713584,321.920523 C31.2859011,321.920523 27.4522815,321.179392 24.0703845,319.697107 C20.6884874,318.214822 17.797138,316.176711 15.3962492,313.582713 C12.9953605,310.988715 11.1624515,307.944783 9.89746708,304.450826 C8.6324827,300.956869 8,297.224744 8,293.254339 C8,289.442749 8.65829832,285.790031 9.97491472,282.296074 C11.2915311,278.802117 13.137348,275.731717 15.5124207,273.08478 C17.8874934,270.437843 20.7401195,268.333559 24.0703845,266.771866 C27.4006495,265.210174 31.105191,264.429339 35.1841202,264.429339 C37.4559289,264.429339 39.5340863,264.588153 41.4186549,264.905785 C43.3032235,265.223418 45.0586857,265.699859 46.6850942,266.335124 C48.3115026,266.970389 49.8346242,267.751224 51.2545047,268.677651 C52.6743851,269.604079 54.0555208,270.649604 55.3979532,271.814256 L51.4481238,276.578719 C50.4154835,275.625822 49.3312274,274.76558 48.1953231,273.997968 C47.0594187,273.230357 45.8331767,272.568632 44.5165603,272.012775 C43.199944,271.456919 41.7542692,271.020181 40.1794927,270.702548 C38.6047163,270.384916 36.8621619,270.226102 34.9517773,270.226102 C31.9571204,270.226102 29.194849,270.834888 26.6648803,272.052479 C24.1349115,273.27007 21.9663994,274.911147 20.1592788,276.975757 C18.3521583,279.040368 16.9322992,281.462279 15.8996589,284.241563 C14.8670186,287.020847 14.3507061,289.972138 14.3507061,293.095523 C14.3507061,296.430664 14.8541107,299.514299 15.860935,302.346522 C16.8677593,305.178744 18.3005263,307.627124 20.1592788,309.691735 C22.0180314,311.756346 24.2639904,313.370953 26.8972232,314.535606 C29.530456,315.700258 32.4992523,316.282575 35.8037013,316.282575 C38.9016222,316.282575 41.8187873,315.739961 44.5552842,314.654717 C47.291781,313.569473 49.5893712,312.259259 51.4481238,310.724035 L51.4481238,296.907093 L34.9517773,296.907093 L34.9517773,291.269146 L57.3341441,291.269146 L57.3341441,313.423898 Z M109.378955,300.401033 C109.378955,303.312663 108.849735,306.078671 107.791279,308.699139 C106.732823,311.319606 105.27424,313.609173 103.415487,315.567906 C101.556735,317.526639 99.3365916,319.075074 96.7549908,320.213257 C94.17339,321.35144 91.385303,321.920523 88.3906461,321.920523 C85.3959892,321.920523 82.6337178,321.35144 80.1037491,320.213257 C77.5737803,319.075074 75.3794526,317.539874 73.5207,315.60761 C71.6619474,313.675346 70.2162727,311.412249 69.1836324,308.81825 C68.1509921,306.224252 67.6346797,303.471479 67.6346797,300.559848 C67.6346797,297.648217 68.1509921,294.88221 69.1836324,292.261742 C70.2162727,289.641275 71.6619474,287.351708 73.5207,285.392975 C75.3794526,283.434242 77.5866881,281.885807 80.1424729,280.747624 C82.6982576,279.609441 85.4992525,279.040358 88.5455414,279.040358 C91.5401983,279.040358 94.3153775,279.609441 96.8711622,280.747624 C99.426947,281.885807 101.634183,283.421007 103.492935,285.353271 C105.351688,287.285535 106.797362,289.548632 107.830003,292.142631 C108.862643,294.736629 109.378955,297.489402 109.378955,300.401033 Z M103.260592,300.559848 C103.260592,298.336421 102.886266,296.245372 102.137601,294.286639 C101.388937,292.327905 100.343405,290.620657 99.0009722,289.164841 C97.6585398,287.709026 96.083787,286.557626 94.2766664,285.710606 C92.4695459,284.863586 90.5075587,284.440082 88.3906461,284.440082 C86.2221015,284.440082 84.2342987,284.850352 82.4271781,285.670902 C80.6200576,286.491452 79.0840282,287.629618 77.8190438,289.085434 C76.5540594,290.541249 75.560158,292.235263 74.8373098,294.167527 C74.1144616,296.099791 73.7530429,298.177606 73.7530429,300.401033 C73.7530429,302.62446 74.1273694,304.715509 74.8760336,306.674242 C75.6246979,308.632975 76.6573227,310.32699 77.9739391,311.756336 C79.2905555,313.185682 80.8524005,314.323848 82.659521,315.170867 C84.4666416,316.017887 86.4286287,316.441391 88.5455414,316.441391 C90.714086,316.441391 92.7018888,316.031122 94.5090093,315.210571 C96.3161299,314.390021 97.8650671,313.265089 99.1558675,311.835743 C100.446668,310.406397 101.453477,308.725618 102.176325,306.793354 C102.899174,304.86109 103.260592,302.783275 103.260592,300.559848 Z M128.198731,285.313567 L128.198731,309.294697 C128.198731,311.835756 128.818306,313.609177 130.057474,314.615013 C131.296643,315.620849 132.923027,316.12376 134.936675,316.12376 C135.969316,316.12376 136.937401,316.017884 137.840962,315.806129 C138.744522,315.594374 139.712608,315.223808 140.745248,314.694421 L140.745248,319.93533 C139.712608,320.517656 138.615444,320.954394 137.453723,321.245557 C136.292003,321.53672 134.988314,321.6823 133.542618,321.6823 C131.942025,321.6823 130.444719,321.470548 129.050655,321.047038 C127.656591,320.623528 126.456164,319.948569 125.44934,319.022141 C124.442516,318.095713 123.655139,316.891375 123.087187,315.40909 C122.519235,313.926806 122.235263,312.153385 122.235263,310.088774 L122.235263,285.313567 L116.659033,285.313567 L116.659033,279.913843 L122.235263,279.913843 L122.235263,267.52624 L128.198731,267.52624 L128.198731,279.913843 L140.900143,279.913843 L140.900143,285.313567 L128.198731,285.313567 Z M157.39649,297.462947 L157.39649,320.96763 L151.433022,320.96763 L151.433022,263 L157.39649,263 L157.39649,287.060537 C158.738922,284.83711 160.494384,282.944578 162.662929,281.382886 C164.831474,279.821193 167.645376,279.040358 171.104721,279.040358 C173.531426,279.040358 175.68703,279.437393 177.571599,280.231474 C179.456167,281.025555 181.056736,282.150486 182.373352,283.606301 C183.689969,285.062117 184.696778,286.795835 185.39381,288.807507 C186.090842,290.819179 186.439353,293.042573 186.439353,295.477755 L186.439353,320.96763 L180.475885,320.96763 L180.475885,296.986501 C180.475885,293.174912 179.520707,290.157449 177.610323,287.934022 C175.699938,285.710595 172.963482,284.598898 169.400873,284.598898 C167.697017,284.598898 166.109356,284.903291 164.637844,285.512087 C163.166331,286.120882 161.888458,286.994358 160.804186,288.132541 C159.719913,289.270724 158.880906,290.633876 158.287138,292.222038 C157.693369,293.810201 157.39649,295.557153 157.39649,297.462947 Z M213.623473,284.757713 C211.248401,284.757713 209.092796,285.035638 207.156596,285.591494 C205.220395,286.147351 203.322947,286.875248 201.464195,287.775206 L199.682899,282.772521 C201.903076,281.713746 204.149035,280.879973 206.420843,280.271178 C208.692652,279.662382 211.30003,279.357989 214.243055,279.357989 C219.716048,279.357989 223.923994,280.74761 226.867019,283.526894 C229.810044,286.306178 231.281534,290.422103 231.281534,295.874793 L231.281534,320.96763 L225.550409,320.96763 L225.550409,314.773829 C224.156345,316.626685 222.284712,318.267761 219.935456,319.697107 C217.586199,321.126453 214.63031,321.841115 211.067701,321.841115 C209.208949,321.841115 207.388948,321.576426 205.607643,321.047038 C203.826339,320.517651 202.22577,319.710347 200.80589,318.625103 C199.386009,317.539859 198.250122,316.203176 197.398194,314.615013 C196.546265,313.026851 196.120308,311.147554 196.120308,308.977066 C196.120308,306.806577 196.533358,304.887577 197.35947,303.220007 C198.185582,301.552436 199.360193,300.162815 200.883337,299.051102 C202.406482,297.939388 204.213575,297.092381 206.304672,296.510055 C208.395768,295.927729 210.706266,295.63657 213.236235,295.63657 C215.817836,295.63657 218.063795,295.795384 219.97418,296.113016 C221.884564,296.430649 223.743289,296.854152 225.550409,297.38354 L225.550409,295.954201 C225.550409,292.248489 224.504877,289.456012 222.41378,287.576687 C220.322683,285.697362 217.392611,284.757713 213.623473,284.757713 Z M213.855816,300.16281 C210.086679,300.16281 207.19533,300.93041 205.181681,302.465633 C203.168032,304.000857 202.161223,306.091906 202.161223,308.738843 C202.161223,310.062311 202.432287,311.226946 202.974423,312.232782 C203.51656,313.238618 204.252305,314.09886 205.181681,314.813533 C206.111057,315.528206 207.182406,316.07082 208.395758,316.441391 C209.60911,316.811962 210.886984,316.997245 212.229416,316.997245 C214.088169,316.997245 215.830723,316.719321 217.457131,316.163464 C219.08354,315.607607 220.503399,314.840007 221.716751,313.86064 C222.930104,312.881273 223.885282,311.716639 224.582314,310.366701 C225.279346,309.016763 225.627857,307.521266 225.627857,305.880165 L225.627857,301.909779 C224.130529,301.486269 222.41379,301.089235 220.477589,300.718664 C218.541389,300.348092 216.334153,300.16281 213.855816,300.16281 Z M275.736477,287.219352 C276.459326,286.107639 277.272518,285.04888 278.176078,284.043044 C279.079638,283.037208 280.099355,282.163732 281.23526,281.422589 C282.371164,280.681447 283.649037,280.09913 285.068918,279.67562 C286.488798,279.25211 288.076459,279.040358 289.831947,279.040358 C294.478829,279.040358 298.118831,280.509386 300.752064,283.447486 C303.385297,286.385586 304.701893,290.422105 304.701893,295.557162 L304.701893,320.96763 L298.738425,320.96763 L298.738425,296.986501 C298.738425,293.016096 297.821971,289.958929 295.989034,287.81491 C294.156098,285.670891 291.613259,284.598898 288.360442,284.598898 C286.863114,284.598898 285.443255,284.876822 284.100822,285.432679 C282.75839,285.988536 281.583779,286.809074 280.576955,287.894318 C279.57013,288.979562 278.769846,290.316245 278.176078,291.904407 C277.58231,293.49257 277.28543,295.29246 277.28543,297.304132 L277.28543,320.96763 L271.39941,320.96763 L271.39941,296.827686 C271.39941,292.963158 270.482955,289.958929 268.650019,287.81491 C266.817082,285.670891 264.300059,284.598898 261.098874,284.598898 C259.498282,284.598898 258.026791,284.916526 256.684359,285.55179 C255.341927,286.187055 254.167316,287.087 253.160492,288.251653 C252.153667,289.416305 251.366291,290.779457 250.798339,292.34115 C250.230386,293.902843 249.946415,295.63656 249.946415,297.542355 L249.946415,320.96763 L243.982947,320.96763 L243.982947,279.913843 L249.946415,279.913843 L249.946415,286.822314 C250.617631,285.816478 251.353376,284.837126 252.153672,283.884228 C252.953969,282.931331 253.870423,282.097559 254.903063,281.382886 C255.935704,280.668213 257.097407,280.09913 258.388207,279.67562 C259.679007,279.25211 261.176313,279.040358 262.88017,279.040358 C266.132987,279.040358 268.817811,279.821193 270.934724,281.382886 C273.051637,282.944578 274.652205,284.890048 275.736477,287.219352 Z" id="Gotham-Copy-6"></path>
                    <path d="M56.7282015,400.265082 C55.3857691,401.429735 53.901371,402.541431 52.2749625,403.600206 C50.648554,404.658981 48.8930918,405.585395 47.0085232,406.379476 C45.1239547,407.173557 43.0974285,407.795578 40.9288838,408.245557 C38.7603392,408.695537 36.4885646,408.920523 34.1134918,408.920523 C29.8796666,408.920523 26.0331391,408.192626 22.5737941,406.736811 C19.1144491,405.280996 16.1585605,403.269354 13.7060398,400.701825 C11.253519,398.134296 9.35607094,395.103598 8.01363853,391.609642 C6.67120613,388.115685 6,384.330622 6,380.254339 C6,376.336872 6.68411394,372.631216 8.05236235,369.137259 C9.42061076,365.643302 11.3438745,362.586136 13.8222112,359.965668 C16.300548,357.3452 19.2564365,355.267386 22.6899655,353.732163 C26.1234946,352.196939 29.8796674,351.429339 33.9585966,351.429339 C36.3336693,351.429339 38.4892736,351.601387 40.4254742,351.945489 C42.3616748,352.289591 44.1558604,352.779267 45.8080849,353.414532 C47.4603094,354.049797 49.0221544,354.830631 50.4936668,355.757059 C51.9651793,356.683487 53.3979462,357.755481 54.7920106,358.973072 L48.751095,366.357989 C47.7184547,365.45803 46.6600143,364.637492 45.575742,363.89635 C44.4914696,363.155207 43.3555823,362.533187 42.168046,362.030269 C40.9805096,361.52735 39.6768208,361.130316 38.2569404,360.839153 C36.8370599,360.54799 35.2752149,360.40241 33.5713584,360.40241 C31.0930217,360.40241 28.7825236,360.918555 26.639795,361.950861 C24.4970663,362.983166 22.6383417,364.399256 21.0635652,366.199173 C19.4887887,367.999091 18.2496389,370.090139 17.3460787,372.472383 C16.4425184,374.854626 15.990745,377.395647 15.990745,380.095523 C15.990745,382.954215 16.4296106,385.601112 17.3073548,388.036294 C18.1850991,390.471477 19.4371567,392.57576 21.0635652,394.349208 C22.6899737,396.122655 24.6261452,397.512277 26.8721379,398.518113 C29.1181306,399.523949 31.6351536,400.026859 34.4232824,400.026859 C37.0048832,400.026859 39.4186437,399.643059 41.6646364,398.875447 C43.910629,398.107836 45.8597084,397.08878 47.5119329,395.81825 L47.5119329,385.41584 L33.648806,385.41584 L33.648806,376.919215 L56.7282015,376.919215 L56.7282015,400.265082 Z M109.392594,387.003994 C109.392594,390.021502 108.837558,392.853682 107.72747,395.500619 C106.617381,398.147556 105.09426,400.463592 103.158059,402.448794 C101.221859,404.433997 98.9113607,406.008901 96.2264959,407.173553 C93.5416311,408.338206 90.624466,408.920523 87.474913,408.920523 C84.3769921,408.920523 81.4985504,408.35144 78.8395016,407.213257 C76.1804528,406.075074 73.8828626,404.513405 71.946662,402.528202 C70.0104614,400.542999 68.5002476,398.240199 67.4159753,395.619731 C66.331703,392.999263 65.7895749,390.180318 65.7895749,387.16281 C65.7895749,384.145301 66.3446108,381.299887 67.4546991,378.62648 C68.5647874,375.953074 70.0879091,373.623805 72.0241096,371.638602 C73.9603102,369.653399 76.2579004,368.078495 78.9169492,366.913843 C81.575998,365.749191 84.4802553,365.166873 87.6298083,365.166873 C90.7793612,365.166873 93.6836185,365.735956 96.3426673,366.874139 C99.0017161,368.012322 101.299306,369.573991 103.235507,371.559194 C105.171708,373.544397 106.681921,375.860432 107.766194,378.507369 C108.850466,381.154306 109.392594,383.986486 109.392594,387.003994 Z M100.02143,387.16281 C100.02143,385.309954 99.7116426,383.563002 99.0920584,381.921901 C98.4724742,380.2808 97.6076509,378.838241 96.4975626,377.59418 C95.3874743,376.35012 94.0708776,375.370768 92.5477332,374.656095 C91.0245887,373.941422 89.3336656,373.584091 87.474913,373.584091 C85.6161605,373.584091 83.9252373,373.941422 82.4020929,374.656095 C80.8789484,375.370768 79.5752596,376.336885 78.4909872,377.554476 C77.4067149,378.772067 76.5806151,380.188157 76.0126629,381.802789 C75.4447107,383.417421 75.1607389,385.151138 75.1607389,387.003994 C75.1607389,388.85685 75.4705263,390.617037 76.0901105,392.284607 C76.7096947,393.952177 77.574518,395.394736 78.6846063,396.612327 C79.7946947,397.829918 81.1112913,398.796036 82.6344358,399.510709 C84.1575802,400.225382 85.8226877,400.582713 87.6298083,400.582713 C89.5401929,400.582713 91.2569316,400.225382 92.7800761,399.510709 C94.3032205,398.796036 95.6069094,397.829918 96.6911817,396.612327 C97.775454,395.394736 98.6015539,393.978646 99.169506,392.364015 C99.7374582,390.749383 100.02143,389.015666 100.02143,387.16281 Z M130.226008,374.29876 L130.226008,394.865358 C130.226008,396.718214 130.664874,398.054897 131.542618,398.875447 C132.420362,399.695998 133.659512,400.106267 135.260104,400.106267 C137.273753,400.106267 139.209925,399.629825 141.068677,398.676928 L141.068677,406.538292 C139.881141,407.226495 138.616175,407.755875 137.273743,408.126446 C135.931311,408.497017 134.382373,408.6823 132.626885,408.6823 C130.923028,408.6823 129.348275,408.470548 127.902579,408.047038 C126.456883,407.623528 125.204825,406.935335 124.146369,405.982438 C123.087912,405.02954 122.27472,403.772264 121.706768,402.210571 C121.138816,400.648878 120.854844,398.703409 120.854844,396.374104 L120.854844,374.29876 L115.665852,374.29876 L115.665852,366.040358 L120.854844,366.040358 L120.854844,354.52624 L130.226008,354.52624 L130.226008,366.040358 L141.223572,366.040358 L141.223572,374.29876 L130.226008,374.29876 Z M160.043348,384.304132 L160.043348,407.96763 L150.672184,407.96763 L150.672184,350 L160.043348,350 L160.043348,372.55179 C160.714564,371.545954 161.450309,370.606306 162.250606,369.732817 C163.050902,368.859327 163.980264,368.078493 165.03872,367.390289 C166.097177,366.702086 167.25888,366.159472 168.523864,365.762431 C169.788848,365.36539 171.221615,365.166873 172.822208,365.166873 C177.469089,365.166873 181.05746,366.622667 183.587429,369.534297 C186.117398,372.445928 187.382363,376.363336 187.382363,381.286639 L187.382363,407.96763 L178.011199,407.96763 L178.011199,384.145317 C178.011199,380.863115 177.249639,378.335328 175.726494,376.56188 C174.20335,374.788432 172.047745,373.901722 169.259617,373.901722 C166.52312,373.901722 164.302976,374.814901 162.59912,376.641288 C160.895263,378.467674 160.043348,381.02193 160.043348,384.304132 Z M232.999021,407.96763 L223.705305,407.96763 L223.705305,402.806129 C222.31124,404.500169 220.529962,405.929493 218.361418,407.094146 C216.192873,408.258798 213.55968,408.841115 210.461759,408.841115 C208.499742,408.841115 206.641018,408.563191 204.885529,408.007334 C203.130041,407.451477 201.594011,406.630939 200.277395,405.545695 C198.960778,404.460451 197.902338,403.110533 197.102042,401.495902 C196.301745,399.88127 195.901603,398.015208 195.901603,395.897658 L195.901603,395.738843 C195.901603,393.462477 196.314653,391.477304 197.140765,389.783264 C197.966878,388.089224 199.115673,386.686369 200.587185,385.574655 C202.058698,384.462942 203.81416,383.629169 205.853625,383.073312 C207.893089,382.517456 210.100325,382.239531 212.475397,382.239531 C214.953734,382.239531 217.057707,382.398345 218.78738,382.715978 C220.517052,383.03361 222.18216,383.457114 223.782752,383.986501 L223.782752,382.954201 C223.782752,380.04257 222.917929,377.819176 221.188256,376.283953 C219.458584,374.74873 216.967377,373.981129 213.71456,373.981129 C211.391119,373.981129 209.325869,374.21935 207.518749,374.695799 C205.711628,375.172247 203.878719,375.807503 202.019967,376.601584 L199.464195,368.899036 C201.736003,367.840261 204.059409,366.993254 206.434482,366.357989 C208.809555,365.722724 211.675088,365.405096 215.031169,365.405096 C221.123747,365.405096 225.641481,366.953531 228.584506,370.050448 C231.527531,373.147364 232.999021,377.50151 232.999021,383.113016 L232.999021,407.96763 Z M223.937648,392.800757 L223.937648,390.180303 C222.750111,389.703854 221.34316,389.306819 219.716751,388.989187 C218.090343,388.671555 216.373604,388.512741 214.566484,388.512741 C211.623459,388.512741 209.325868,389.095058 207.673644,390.25971 C206.021419,391.424363 205.19532,393.091908 205.19532,395.262396 L205.19532,395.421212 C205.19532,397.432884 205.95688,398.968084 207.480025,400.026859 C209.003169,401.085634 210.874802,401.615013 213.094979,401.615013 C214.643939,401.615013 216.076706,401.403262 217.393322,400.979752 C218.709939,400.556242 219.858734,399.96069 220.839742,399.193078 C221.82075,398.425466 222.582311,397.499052 223.124447,396.413808 C223.666584,395.328564 223.937648,394.124226 223.937648,392.800757 Z M278.150993,372.55179 C279.803217,370.328363 281.752297,368.541708 283.998289,367.19177 C286.244282,365.841832 288.916199,365.166873 292.01412,365.166873 C296.506105,365.166873 300.017029,366.556494 302.546998,369.335778 C305.076967,372.115062 306.341932,376.072173 306.341932,381.207231 L306.341932,407.96763 L296.970768,407.96763 L296.970768,384.145317 C296.970768,380.810176 296.247931,378.269155 294.802234,376.522176 C293.356538,374.775198 291.317104,373.901722 288.683871,373.901722 C286.10227,373.901722 283.998297,374.788432 282.371889,376.56188 C280.74548,378.335328 279.932288,380.916053 279.932288,384.304132 L279.932288,407.96763 L270.561124,407.96763 L270.561124,384.065909 C270.561124,380.783707 269.838287,378.269155 268.392591,376.522176 C266.946894,374.775198 264.90746,373.901722 262.274227,373.901722 C259.640995,373.901722 257.524114,374.828136 255.923521,376.680992 C254.322929,378.533847 253.522644,381.101338 253.522644,384.38354 L253.522644,407.96763 L244.151481,407.96763 L244.151481,366.040358 L253.522644,366.040358 L253.522644,372.392975 C254.193861,371.440078 254.916698,370.540133 255.691178,369.693113 C256.465658,368.846093 257.356297,368.078493 258.363122,367.390289 C259.369946,366.702086 260.505833,366.159472 261.770818,365.762431 C263.035802,365.36539 264.442753,365.166873 265.991714,365.166873 C268.934739,365.166873 271.425946,365.841832 273.465411,367.19177 C275.504875,368.541708 277.06672,370.328363 278.150993,372.55179 Z" id="Gotham-Copy"></path>
                    <path d="M56.6575732,488.106267 C51.0813434,492.950137 43.4140274,496.920523 33.50073,496.920523 C16.6171454,496.920523 5,484.771143 5,468.333746 L5,468.174931 C5,452.372796 17.0043836,439.429339 33.4232824,439.429339 C43.1816845,439.429339 49.0677048,442.129201 54.7213823,447.052479 L47.2089616,456.343182 C43.0267892,452.769835 39.3093027,450.705234 33.0360442,450.705234 C24.361909,450.705234 17.4690694,458.566598 17.4690694,468.016115 L17.4690694,468.174931 C17.4690694,478.339118 24.2844613,485.803443 33.8879682,485.803443 C38.2250358,485.803443 42.0974176,484.691735 45.1178754,482.468319 L45.1178754,474.527548 L33.1134918,474.527548 L33.1134918,463.966322 L56.6575732,463.966322 L56.6575732,488.106267 Z M109.786651,474.765771 C109.786651,486.994559 100.183145,496.920523 87.2493894,496.920523 C74.3930818,496.920523 64.8670226,487.153374 64.8670226,474.924586 L64.8670226,474.765771 C64.8670226,462.536983 74.4705294,452.611019 87.4042846,452.611019 C100.260592,452.611019 109.786651,462.378168 109.786651,474.606956 L109.786651,474.765771 Z M98.169506,474.924586 L98.169506,474.765771 C98.169506,468.492562 93.7549908,463.01343 87.2493894,463.01343 C80.511445,463.01343 76.484168,468.333746 76.484168,474.606956 L76.484168,474.765771 C76.484168,481.03898 80.8986832,486.518113 87.4042846,486.518113 C94.142229,486.518113 98.169506,481.197796 98.169506,474.924586 Z M141.61763,494.220661 C139.139305,495.729407 136.273743,496.6823 132.323913,496.6823 C125.121283,496.6823 120.242082,493.744214 120.242082,483.897658 L120.242082,463.728099 L115.285434,463.728099 L115.285434,453.405096 L120.242082,453.405096 L120.242082,442.52624 L132.014123,442.52624 L132.014123,453.405096 L141.772525,453.405096 L141.772525,463.728099 L132.014123,463.728099 L132.014123,481.912465 C132.014123,484.691735 133.175837,486.041666 135.809057,486.041666 C137.977591,486.041666 139.913782,485.485812 141.61763,484.53292 L141.61763,494.220661 Z M188.47345,495.96763 L176.701409,495.96763 L176.701409,472.224724 C176.701409,466.507369 174.068189,463.569284 169.576226,463.569284 C165.084263,463.569284 162.218701,466.507369 162.218701,472.224724 L162.218701,495.96763 L150.44666,495.96763 L150.44666,438 L162.218701,438 L162.218701,459.440082 C164.929368,455.866735 168.414512,452.611019 174.37798,452.611019 C183.284458,452.611019 188.47345,458.646005 188.47345,468.413154 L188.47345,495.96763 Z M234.399898,495.96763 L223.015095,495.96763 L223.015095,491.361983 C220.149533,494.617699 216.199703,496.761708 210.468578,496.761708 C202.646367,496.761708 196.218213,492.15606 196.218213,483.738843 L196.218213,483.580027 C196.218213,474.289325 203.111053,470.001308 212.946902,470.001308 C217.129075,470.001308 220.149533,470.715978 223.092543,471.748278 L223.092543,471.033609 C223.092543,466.030923 220.072085,463.251653 214.186065,463.251653 C209.694102,463.251653 206.518749,464.125138 202.723815,465.554476 L199.780804,456.343182 C204.350215,454.278581 208.842178,452.92865 215.889913,452.92865 C228.74622,452.92865 234.399898,459.757713 234.399898,471.271832 L234.399898,495.96763 Z M223.247438,480.959573 L223.247438,478.815564 C221.2338,477.862672 218.60058,477.22741 215.735017,477.22741 C210.700921,477.22741 207.603016,479.292011 207.603016,483.103581 L207.603016,483.262396 C207.603016,486.518113 210.236235,488.423898 214.031169,488.423898 C219.529952,488.423898 223.247438,485.326997 223.247438,480.959573 Z M307.897704,495.96763 L296.125663,495.96763 L296.125663,472.224724 C296.125663,466.507369 293.647339,463.569284 289.232824,463.569284 C284.818309,463.569284 282.107641,466.507369 282.107641,472.224724 L282.107641,495.96763 L270.335601,495.96763 L270.335601,472.224724 C270.335601,466.507369 267.857276,463.569284 263.442761,463.569284 C259.028246,463.569284 256.317579,466.507369 256.317579,472.224724 L256.317579,495.96763 L244.545538,495.96763 L244.545538,453.405096 L256.317579,453.405096 L256.317579,459.440082 C259.028246,455.866735 262.590837,452.611019 268.554305,452.611019 C273.97564,452.611019 278.080364,455.072658 280.248898,459.360675 C283.888937,454.993251 288.226005,452.611019 293.879682,452.611019 C302.631265,452.611019 307.897704,458.010744 307.897704,468.254339 L307.897704,495.96763 Z" id="Gotham-Copy-3"></path>
                    <path d="M31.5075493,584.079338 C14.6239647,584.079338 2,572.168181 2,555.333746 L2,555.174931 C2,538.975757 14.3916218,526.270523 31.1977587,526.270523 C40.723818,526.270523 47.4617623,529.288016 53.1928874,534.37011 L44.3638569,545.248967 C40.4914751,541.913843 36.6190933,540.008058 31.2752064,540.008058 C23.4529952,540.008058 17.4120796,546.757713 17.4120796,555.254339 L17.4120796,555.413154 C17.4120796,564.386226 23.5304428,570.81825 32.1271304,570.81825 C35.7671693,570.81825 38.5552842,570.024173 40.8012656,568.515427 L40.8012656,561.765771 L30.1134918,561.765771 L30.1134918,550.489876 L55.0516306,550.489876 L55.0516306,575.503305 C49.3205056,580.347176 41.3433991,584.079338 31.5075493,584.079338 Z M83.9395988,583.999931 C70.5411578,583.999931 60.8602033,573.915151 60.8602033,561.686363 L60.8602033,561.527548 C60.8602033,549.29876 70.6186054,539.055165 84.0944941,539.055165 C97.4929351,539.055165 107.17389,549.139945 107.17389,561.368732 L107.17389,561.527548 C107.17389,573.756336 97.4154875,583.999931 83.9395988,583.999931 Z M84.0944941,571.215289 C89.438381,571.215289 92.846077,566.847865 92.846077,561.686363 L92.846077,561.527548 C92.846077,556.286639 89.1285904,551.839807 83.9395988,551.839807 C78.5957119,551.839807 75.188016,556.207231 75.188016,561.368732 L75.188016,561.527548 C75.188016,566.768457 78.9055025,571.215289 84.0944941,571.215289 Z M130.020942,583.841115 C121.191912,583.841115 115.925472,579.87073 115.925472,569.627135 L115.925472,552.157438 L110.968824,552.157438 L110.968824,540.008058 L115.925472,540.008058 L115.925472,529.129201 L130.640523,529.129201 L130.640523,540.008058 L140.398925,540.008058 L140.398925,552.157438 L130.640523,552.157438 L130.640523,566.689049 C130.640523,569.706542 131.957133,570.977066 134.6678,570.977066 C136.603991,570.977066 138.462735,570.421212 140.24403,569.547727 L140.24403,581.379476 C137.610811,582.888223 134.125667,583.841115 130.020942,583.841115 Z M146.749632,582.96763 L146.749632,525 L161.464682,525 L161.464682,545.884228 C164.17535,542.310881 168.047731,539.055165 174.011199,539.055165 C182.917678,539.055165 188.261564,545.090151 188.261564,554.8573 L188.261564,582.96763 L173.546514,582.96763 L173.546514,559.701171 C173.546514,555.016115 171.145637,552.475069 167.660493,552.475069 C164.097902,552.475069 161.464682,555.016115 161.464682,559.701171 L161.464682,582.96763 L146.749632,582.96763 Z M207.855816,583.920523 C199.87871,583.920523 193.760347,579.235468 193.760347,570.659435 L193.760347,570.500619 C193.760347,561.606956 200.343396,557.001308 210.179245,557.001308 C214.051627,557.001308 217.846561,557.795385 220.247438,558.66887 L220.247438,557.954201 C220.247438,553.507369 217.536771,550.966322 211.883093,550.966322 C207.468578,550.966322 204.060882,551.839807 200.343396,553.348553 L197.322938,542.70792 C202.047244,540.722727 207.08134,539.372796 214.28397,539.372796 C221.796391,539.372796 226.907935,541.199173 230.238183,544.613705 C233.413536,547.790014 234.730146,552.236846 234.730146,558.271832 L234.730146,582.96763 L220.16999,582.96763 L220.16999,578.520798 C217.304428,581.776515 213.354598,583.920523 207.855816,583.920523 Z M213.122256,574.471005 C217.381876,574.471005 220.402333,571.691735 220.402333,567.403719 L220.402333,565.418526 C218.930828,564.783264 216.839742,564.306818 214.671208,564.306818 C210.411588,564.306818 207.933264,566.450826 207.933264,569.627135 L207.933264,569.78595 C207.933264,572.724035 210.101798,574.471005 213.122256,574.471005 Z M242.242567,582.96763 L242.242567,540.008058 L256.957618,540.008058 L256.957618,545.884228 C259.668285,542.310881 263.540667,539.055165 269.426687,539.055165 C275.002917,539.055165 279.262537,541.596212 281.508518,546.043044 C285.148557,541.755027 289.408177,539.055165 295.52654,539.055165 C304.433018,539.055165 309.854353,544.772521 309.854353,554.777892 L309.854353,582.96763 L295.139302,582.96763 L295.139302,559.621763 C295.139302,554.936708 292.893321,552.475069 289.408177,552.475069 C285.923033,552.475069 283.367261,554.936708 283.367261,559.621763 L283.367261,582.96763 L268.652211,582.96763 L268.652211,559.621763 C268.652211,554.936708 266.406229,552.475069 262.921085,552.475069 C259.435942,552.475069 256.957618,554.936708 256.957618,559.621763 L256.957618,582.96763 L242.242567,582.96763 Z" id="Gotham"></path>
                    <path d="M30.4369209,672.158746 C13.5533363,672.158746 -2.27373675e-13,660.56522 -2.27373675e-13,643.333746 L-2.27373675e-13,643.174931 C-2.27373675e-13,626.578719 12.7788599,614.191116 29.8947875,614.191116 C39.1885038,614.191116 46.7009245,617.367424 52.5869448,622.608333 L42.4413045,635.154752 C38.8787132,632.057851 34.9288838,630.310881 30.4369209,630.310881 C23.3891861,630.310881 18.2776421,635.869421 18.2776421,643.413154 L18.2776421,643.571969 C18.2776421,651.433333 23.621529,656.833058 31.2113973,656.833058 C34.3093027,656.833058 36.0131507,656.356611 37.4072082,655.562534 L37.4072082,650.003994 L28.1134918,650.003994 L28.1134918,638.092837 L54.3682404,638.092837 L54.3682404,663.820936 C48.4822201,668.744214 40.2727707,672.158746 30.4369209,672.158746 Z M81.5523606,671.999931 C67.6892338,671.999931 57.853384,661.676928 57.853384,649.44814 L57.853384,649.289325 C57.853384,637.060537 67.7666814,626.578719 81.7072559,626.578719 C95.5703827,626.578719 105.406233,636.901722 105.406233,649.130509 L105.406233,649.289325 C105.406233,661.518113 95.4929351,671.999931 81.5523606,671.999931 Z M81.7072559,656.991873 C85.6570853,656.991873 88.5226479,653.577341 88.5226479,649.44814 L88.5226479,649.289325 C88.5226479,645.001308 85.4247424,641.586777 81.5523606,641.586777 C77.6025312,641.586777 74.7369687,645.001308 74.7369687,649.130509 L74.7369687,649.289325 C74.7369687,653.577341 77.8348741,656.991873 81.7072559,656.991873 Z M128.563076,671.920523 C118.185092,671.920523 112.608863,666.997245 112.608863,656.436019 L112.608863,641.507369 L107.652214,641.507369 L107.652214,627.611019 L112.608863,627.611019 L112.608863,616.732163 L130.189476,616.732163 L130.189476,627.611019 L139.947878,627.611019 L139.947878,641.507369 L130.189476,641.507369 L130.189476,652.465633 C130.189476,655.72135 131.660981,656.912465 134.449096,656.912465 C136.075496,656.912465 137.93424,656.436019 139.792983,655.562534 L139.792983,669.458884 C137.004868,670.96763 132.822696,671.920523 128.563076,671.920523 Z M143.897708,670.96763 L143.897708,613 L161.478321,613 L161.478321,633.407782 C164.188988,629.834435 168.448608,626.578719 174.412076,626.578719 C183.318554,626.578719 188.894784,632.613705 188.894784,642.380854 L188.894784,670.96763 L171.314171,670.96763 L171.314171,648.177617 C171.314171,644.445454 169.145637,642.301446 166.512417,642.301446 C163.879198,642.301446 161.478321,644.445454 161.478321,648.177617 L161.478321,670.96763 L143.897708,670.96763 Z M206.088159,671.999931 C197.956157,671.999931 192.225032,667.235468 192.225032,658.659435 L192.225032,658.500619 C192.225032,649.845179 198.498291,645.001308 208.334141,645.001308 C211.896732,645.001308 216.466142,645.795385 218.324886,646.589463 L218.324886,645.874793 C218.324886,641.904407 215.924009,639.601584 210.502674,639.601584 C206.165607,639.601584 202.525568,640.554476 198.808081,642.063223 L195.710176,630.072658 C200.589377,628.166873 206.165607,626.89635 213.523132,626.89635 C222.11982,626.89635 227.69605,628.722727 231.413536,632.534297 C234.588889,635.790014 235.828051,639.998622 235.828051,646.271832 L235.828051,670.96763 L218.247438,670.96763 L218.247438,666.600206 C215.304428,669.855922 211.354598,671.999931 206.088159,671.999931 Z M213.058446,661.59752 C216.156352,661.59752 218.479781,659.056473 218.479781,654.927272 L218.479781,653.100895 C217.472962,652.703856 215.924009,652.386226 214.452504,652.386226 C210.96736,652.386226 209.031169,654.530234 209.031169,657.230096 L209.031169,657.388911 C209.031169,659.929958 210.812465,661.59752 213.058446,661.59752 Z M240.7847,670.96763 L240.7847,627.611019 L258.365313,627.611019 L258.365313,633.407782 C261.075981,629.834435 265.335601,626.578719 271.144173,626.578719 C276.875298,626.578719 281.289814,629.119766 283.613243,633.725413 C287.175834,629.596212 291.435454,626.578719 297.941055,626.578719 C307.002429,626.578719 312.578659,632.613705 312.578659,642.380854 L312.578659,670.96763 L294.998045,670.96763 L294.998045,648.018801 C294.998045,644.366047 292.906959,642.301446 290.351187,642.301446 C287.795415,642.301446 285.471986,644.366047 285.471986,648.018801 L285.471986,670.96763 L267.891373,670.96763 L267.891373,648.018801 C267.891373,644.366047 265.800287,642.301446 263.244515,642.301446 C260.688743,642.301446 258.365313,644.366047 258.365313,648.018801 L258.365313,670.96763 L240.7847,670.96763 Z" id="Gotham-Copy-7"></path>
                </g>
                <path d="M381.156,59.912 C367.4,59.912 358.964,50.336 358.964,37.72 C358.964,20.544 372.644,4.888 391.112,4.888 C400.232,4.888 406.388,8.992 410.036,14.236 L408.668,15.148 C405.324,10.284 400.004,6.408 391.112,6.408 C373.708,6.408 360.636,21.152 360.636,37.644 C360.636,49.5 368.464,58.392 381.308,58.392 C387.844,58.392 393.924,56.112 398.484,53.224 L404.032,33.996 L385.26,33.996 L385.716,32.324 L406.16,32.324 L399.928,54.136 C394.76,57.48 387.844,59.912 381.156,59.912 Z M431.924,59.912 C421.816,59.912 414.52,52.692 414.52,42.964 C414.52,31.868 423.564,20.088 436.864,20.088 C446.972,20.088 454.268,27.308 454.268,37.036 C454.268,48.132 445.224,59.912 431.924,59.912 Z M432,58.392 C444.084,58.392 452.596,47.6 452.596,37.264 C452.596,28.448 446.288,21.608 436.788,21.608 C424.704,21.608 416.192,32.4 416.192,42.736 C416.192,51.552 422.5,58.392 432,58.392 Z M472.432,59.684 C466.884,59.684 464.072,57.176 464.072,52.692 C464.072,51.552 464.3,50.26 464.68,48.816 L471.748,22.444 L465.744,22.444 L466.124,21 L472.128,21 L475.624,7.852 L477.22,7.852 L473.724,21 L487.784,21 L487.404,22.444 L473.344,22.444 L466.276,48.816 C465.896,50.184 465.668,51.476 465.668,52.54 C465.668,56.34 468.1,58.164 472.584,58.164 C474.408,58.164 476.08,57.86 478.056,57.024 L477.6,58.772 C475.928,59.456 474.408,59.684 472.432,59.684 Z M488.164,59 L503.06,3.52 L504.656,3.52 L497.284,30.804 C500.096,25.408 505.72,20.088 514.08,20.088 C522.744,20.088 527,25.18 527,32.476 C527,34.528 526.62,36.808 526.012,39.164 L520.692,59 L519.096,59 L524.416,39.164 C525.024,36.884 525.328,34.68 525.328,32.628 C525.328,26.244 521.984,21.608 513.928,21.608 C506.1,21.608 498.12,27.688 495.384,38.024 L489.76,59 L488.164,59 Z M546.38,59.912 C540.376,59.912 534.22,56.188 534.22,49.5 C534.22,41.064 541.136,36.276 551.32,36.276 C556.792,36.276 562.568,37.112 567.432,38.632 L567.888,36.884 C568.344,35.212 568.572,33.692 568.572,32.248 C568.572,25.408 562.948,21.912 554.968,21.912 C550.864,21.912 546.912,22.9 544.328,23.812 L543.872,22.292 C546.608,21.304 550.712,20.392 555.12,20.392 C563.784,20.392 570.092,24.192 570.092,32.172 C570.092,33.616 569.864,35.288 569.408,37.112 L563.556,59 L561.96,59 L564.392,49.956 C561.276,55.428 555.348,59.912 546.38,59.912 Z M546.684,58.468 C556.792,58.468 563.936,51.628 566.14,43.42 L567.052,40.076 C562.264,38.632 556.488,37.796 551.016,37.796 C541.82,37.796 535.892,42.128 535.892,49.272 C535.892,55.504 541.592,58.468 546.684,58.468 Z M577.16,59 L587.344,21 L588.94,21 L586.28,30.804 C588.94,25.636 593.804,20.088 601.176,20.088 C608.472,20.088 612.728,24.724 612.728,31.944 C615.768,26.092 621.24,20.088 628.612,20.088 C636.06,20.088 640.164,24.952 640.164,31.716 C640.164,33.616 639.708,36.276 638.948,39.164 L633.628,59 L632.032,59 L637.352,39.164 C638.036,36.504 638.492,33.996 638.492,31.792 C638.492,25.864 635.3,21.608 628.46,21.608 C621.088,21.608 614.172,29.132 611.664,38.48 L606.192,59 L604.596,59 L609.916,39.164 C610.6,36.504 611.056,33.996 611.056,31.792 C611.056,25.864 607.864,21.608 601.024,21.608 C593.652,21.608 586.736,29.132 584.228,38.48 L578.756,59 L577.16,59 Z M380.13,147.912 C366.602,147.912 357.634,138.716 357.634,125.644 C357.634,108.772 371.39,92.888 389.858,92.888 C399.738,92.888 405.59,97.296 409.01,102.464 L406.958,103.832 C403.69,99.044 398.826,95.244 389.706,95.244 C372.91,95.244 360.294,109.912 360.294,125.568 C360.294,137.424 368.046,145.632 380.282,145.632 C386.742,145.632 392.518,143.504 396.774,140.768 L402.018,122.452 L383.702,122.452 L384.31,119.944 L405.21,119.944 L398.902,142.212 C393.506,145.708 387.046,147.912 380.13,147.912 Z M430.898,147.912 C420.714,147.912 413.57,140.692 413.57,130.888 C413.57,119.336 423.222,107.784 436.142,107.784 C446.326,107.784 453.546,115.004 453.546,124.808 C453.546,136.512 443.666,147.912 430.898,147.912 Z M431.126,145.632 C442.146,145.632 450.886,135.524 450.886,125.036 C450.886,116.22 444.882,110.064 435.99,110.064 C424.818,110.064 416.154,120.324 416.154,130.66 C416.154,139.476 422.158,145.632 431.126,145.632 Z M472.242,147.684 C466.846,147.684 463.578,145.252 463.578,140.388 C463.578,139.248 463.806,137.88 464.11,136.588 L470.95,110.9 L465.098,110.9 L465.706,108.696 L471.558,108.696 L474.978,95.852 L477.486,95.852 L473.99,108.696 L487.822,108.696 L487.214,110.9 L473.458,110.9 L466.542,136.664 C466.238,137.88 466.01,139.172 466.01,140.16 C466.01,143.732 468.442,145.404 472.698,145.404 C474.446,145.404 476.194,145.1 478.246,144.264 L477.562,146.772 C475.738,147.456 474.218,147.684 472.242,147.684 Z M488.278,147 L503.174,91.52 L505.606,91.52 L498.614,117.436 C501.806,112.42 506.898,107.784 514.574,107.784 C522.858,107.784 527.418,112.8 527.418,120.172 C527.418,122.072 527.038,124.2 526.43,126.328 L520.958,147 L518.526,147 L524.074,126.252 C524.606,124.276 524.834,122.224 524.834,120.4 C524.834,114.244 521.338,110.064 514.042,110.064 C506.67,110.064 498.994,116.068 496.41,125.644 L490.71,147 L488.278,147 Z M546.798,147.912 C540.566,147.912 534.41,144.188 534.41,137.348 C534.41,128.836 541.478,123.744 551.662,123.744 C557.134,123.744 562.834,124.732 567.242,126.024 L567.698,124.58 C568.078,123.136 568.306,121.54 568.306,120.248 C568.306,113.788 563.29,110.368 555.462,110.368 C551.282,110.368 547.634,111.28 544.594,112.344 L543.986,110.14 C547.178,109 551.13,108.088 555.69,108.088 C564.658,108.088 570.662,112.192 570.662,120.02 C570.662,121.464 570.434,123.212 569.978,124.96 L564.05,147 L561.618,147 L563.822,138.868 C560.478,143.96 554.854,147.912 546.798,147.912 Z M547.254,145.708 C556.222,145.708 563.67,139.552 565.798,131.496 L566.71,128.076 C562.302,126.86 556.83,126.024 551.282,126.024 C542.618,126.024 536.994,130.28 536.994,136.968 C536.994,142.668 541.858,145.708 547.254,145.708 Z M577.578,147 L587.838,108.696 L590.27,108.696 L587.914,117.436 C591.03,112.496 595.514,107.784 602.43,107.784 C609.574,107.784 613.526,112.496 613.906,118.728 C617.098,112.876 622.57,107.784 629.942,107.784 C637.162,107.784 641.646,112.724 641.646,119.716 C641.646,121.464 641.19,123.896 640.582,126.328 L635.034,147 L632.602,147 L638.15,126.252 C638.758,124.048 639.062,121.768 639.062,119.868 C639.062,114.016 635.718,110.064 629.41,110.064 C622.494,110.064 615.502,116.98 613.146,125.948 L607.522,147 L605.09,147 L610.638,126.252 C611.246,124.048 611.626,121.768 611.626,119.868 C611.626,114.016 608.282,110.064 601.898,110.064 C594.982,110.064 588.066,116.98 585.634,125.948 L580.01,147 L577.578,147 Z M378.648,235.988 C375.35465,235.988 372.302014,235.456005 369.49,234.392 C366.677986,233.327995 364.24601,231.833343 362.194,229.908 C360.14199,227.982657 358.546006,225.639347 357.406,222.878 C356.265994,220.116653 355.696,217.013351 355.696,213.568 C355.696,209.463979 356.519325,205.448686 358.166,201.522 C359.812675,197.595314 362.079986,194.112015 364.968,191.072 C367.856014,188.031985 371.27598,185.574676 375.228,183.7 C379.18002,181.825324 383.486643,180.888 388.148,180.888 C390.884014,180.888 393.27799,181.166664 395.33,181.724 C397.38201,182.281336 399.193325,183.015995 400.764,183.928 C402.334675,184.840005 403.664661,185.891327 404.754,187.082 C405.843339,188.272673 406.793329,189.501327 407.604,190.768 L404.488,192.82 C403.727996,191.654661 402.866671,190.565338 401.904,189.552 C400.941329,188.538662 399.80134,187.652004 398.484,186.892 C397.16666,186.131996 395.634009,185.536669 393.886,185.106 C392.137991,184.675331 390.098678,184.46 387.768,184.46 C383.765313,184.46 380.054017,185.295992 376.634,186.968 C373.213983,188.640008 370.262679,190.83132 367.78,193.542 C365.297321,196.25268 363.346674,199.343316 361.928,202.814 C360.509326,206.284684 359.8,209.818649 359.8,213.416 C359.8,216.405348 360.268662,219.065322 361.206,221.396 C362.143338,223.726678 363.447992,225.715325 365.12,227.362 C366.792008,229.008675 368.793322,230.262662 371.124,231.124 C373.454678,231.985338 376.038652,232.416 378.876,232.416 C382.068016,232.416 384.943321,232.010671 387.502,231.2 C390.060679,230.389329 392.302657,229.350673 394.228,228.084 L399.092,211.06 L381.384,211.06 L382.372,207.412 L403.956,207.412 L397.42,230.288 C394.531986,232.162676 391.593348,233.581329 388.604,234.544 C385.614652,235.506671 382.296018,235.988 378.648,235.988 Z M429.416,235.912 C426.831987,235.912 424.488677,235.481338 422.386,234.62 C420.283323,233.758662 418.472008,232.568008 416.952,231.048 C415.431992,229.527992 414.254004,227.716677 413.418,225.614 C412.581996,223.511323 412.164,221.218679 412.164,218.736 C412.164,215.695985 412.78466,212.757348 414.026,209.92 C415.26734,207.082652 416.939323,204.587344 419.042,202.434 C421.144677,200.280656 423.589319,198.558006 426.376,197.266 C429.162681,195.973994 432.101318,195.328 435.192,195.328 C437.776013,195.328 440.119323,195.758662 442.222,196.62 C444.324677,197.481338 446.135992,198.671992 447.656,200.192 C449.176008,201.712008 450.353996,203.523323 451.19,205.626 C452.026004,207.728677 452.444,210.021321 452.444,212.504 C452.444,215.645349 451.810673,218.634652 450.544,221.472 C449.277327,224.309348 447.580011,226.791989 445.452,228.92 C443.323989,231.048011 440.866681,232.745327 438.08,234.012 C435.293319,235.278673 432.405348,235.912 429.416,235.912 Z M429.796,232.416 C432.126678,232.416 434.419322,231.884005 436.674,230.82 C438.928678,229.755995 440.917325,228.324676 442.64,226.526 C444.362675,224.727324 445.755995,222.637345 446.82,220.256 C447.884005,217.874655 448.416,215.341347 448.416,212.656 C448.416,208.247978 447.162013,204.840679 444.654,202.434 C442.145987,200.027321 438.865354,198.824 434.812,198.824 C432.379988,198.824 430.036678,199.368661 427.782,200.458 C425.527322,201.547339 423.538675,203.003991 421.816,204.828 C420.093325,206.652009 418.725338,208.754655 417.712,211.136 C416.698662,213.517345 416.192,215.999987 416.192,218.584 C416.192,222.992022 417.445987,226.399321 419.954,228.806 C422.462013,231.212679 425.742646,232.416 429.796,232.416 Z M472.052,235.684 C469.467987,235.684 467.276676,235.076006 465.478,233.86 C463.679324,232.643994 462.78,230.693347 462.78,228.008 C462.78,227.399997 462.830666,226.754003 462.932,226.07 C463.033334,225.385997 463.134666,224.790669 463.236,224.284 L469.848,199.66 L464.224,199.66 L465.136,196.24 L470.76,196.24 L474.104,183.852 L477.828,183.852 L474.484,196.24 L487.86,196.24 L486.948,199.66 L473.572,199.66 L466.96,224.36 C466.858666,224.866669 466.77,225.423997 466.694,226.032 C466.618,226.640003 466.58,227.171998 466.58,227.628 C466.58,229.249341 467.149994,230.42733 468.29,231.162 C469.430006,231.89667 470.962657,232.264 472.888,232.264 C474.509341,232.264 476.383989,231.858671 478.512,231.048 L477.524,234.696 C476.510662,235.101335 475.598671,235.367333 474.788,235.494 C473.977329,235.620667 473.065338,235.684 472.052,235.684 Z M488.392,235 L503.288,179.52 L507.012,179.52 L500.552,203.46 C501.514671,202.345328 502.515328,201.281338 503.554,200.268 C504.592672,199.254662 505.694661,198.393337 506.86,197.684 C508.025339,196.974663 509.30466,196.404669 510.698,195.974 C512.09134,195.543331 513.598659,195.328 515.22,195.328 C519.070686,195.328 522.148655,196.442656 524.454,198.672 C526.759345,200.901344 527.912,203.890648 527.912,207.64 C527.912,208.501338 527.836001,209.400662 527.684,210.338 C527.531999,211.275338 527.329335,212.199995 527.076,213.112 L521.3,235 L517.576,235 L523.504,212.808 C523.706668,212.098663 523.858666,211.300671 523.96,210.414 C524.061334,209.527329 524.112,208.729337 524.112,208.02 C524.112,205.131986 523.225342,202.852008 521.452,201.18 C519.678658,199.507992 517.246682,198.672 514.156,198.672 C512.483992,198.672 510.812008,199.026663 509.14,199.736 C507.467992,200.445337 505.897341,201.445994 504.428,202.738 C502.958659,204.030006 501.654006,205.549991 500.514,207.298 C499.373994,209.046009 498.525336,210.983989 497.968,213.112 L492.116,235 L488.392,235 Z M547.216,235.912 C545.594659,235.912 544.024008,235.684002 542.504,235.228 C540.983992,234.771998 539.628673,234.088005 538.438,233.176 C537.247327,232.263995 536.297337,231.136673 535.588,229.794 C534.878663,228.451327 534.524,226.868009 534.524,225.044 C534.524,222.915989 534.954662,220.978009 535.816,219.23 C536.677338,217.481991 537.880659,216.000006 539.426,214.784 C540.971341,213.567994 542.820656,212.63067 544.974,211.972 C547.127344,211.31333 549.470654,210.984 552.004,210.984 C554.790681,210.984 557.488654,211.211998 560.098,211.668 C562.707346,212.124002 564.974657,212.630664 566.9,213.188 L567.204,212.124 C567.356001,211.566664 567.482666,210.92067 567.584,210.186 C567.685334,209.45133 567.736,208.805336 567.736,208.248 C567.736,205.309319 566.735343,203.054675 564.734,201.484 C562.732657,199.913325 559.832019,199.128 556.032,199.128 C553.903989,199.128 551.966009,199.305332 550.218,199.66 C548.469991,200.014668 546.658676,200.52133 544.784,201.18 L544.1,197.836 C546.025343,197.126663 547.937991,196.582002 549.838,196.202 C551.73801,195.821998 553.903988,195.632 556.336,195.632 C561.09869,195.632 564.79732,196.708656 567.432,198.862 C570.06668,201.015344 571.384,203.966648 571.384,207.716 C571.384,208.425337 571.320667,209.235995 571.194,210.148 C571.067333,211.060005 570.877335,211.946662 570.624,212.808 L564.696,235 L561.048,235 L562.796,228.312 C560.921324,230.541344 558.704679,232.365326 556.146,233.784 C553.587321,235.202674 550.610684,235.912 547.216,235.912 Z M547.9,232.492 C549.724009,232.492 551.547991,232.188003 553.372,231.58 C555.196009,230.971997 556.905992,230.098006 558.502,228.958 C560.098008,227.817994 561.478661,226.462675 562.644,224.892 C563.809339,223.321325 564.670664,221.54801 565.228,219.572 L566.14,216.152 C564.16399,215.645331 561.947346,215.214668 559.49,214.86 C557.032654,214.505332 554.360014,214.328 551.472,214.328 C549.546657,214.328 547.786008,214.581331 546.19,215.088 C544.593992,215.594669 543.226006,216.303995 542.086,217.216 C540.945994,218.128005 540.059337,219.20466 539.426,220.446 C538.792664,221.68734 538.476,223.067992 538.476,224.588 C538.476,227.020012 539.324658,228.945326 541.022,230.364 C542.719342,231.782674 545.011986,232.492 547.9,232.492 Z M578.072,235 L588.408,196.24 L592.132,196.24 L590.232,203.46 C591.194671,202.294661 592.169995,201.218005 593.158,200.23 C594.146005,199.241995 595.184661,198.38067 596.274,197.646 C597.363339,196.91133 598.553994,196.341335 599.846,195.936 C601.138006,195.530665 602.569325,195.328 604.14,195.328 C605.862675,195.328 607.395327,195.606664 608.738,196.164 C610.080673,196.721336 611.207995,197.443329 612.12,198.33 C613.032005,199.216671 613.766664,200.229994 614.324,201.37 C614.881336,202.510006 615.261332,203.662661 615.464,204.828 C617.237342,201.939986 619.47932,199.634675 622.19,197.912 C624.90068,196.189325 628.079982,195.328 631.728,195.328 C633.450675,195.328 635.059326,195.631997 636.554,196.24 C638.048674,196.848003 639.327995,197.696661 640.392,198.786 C641.456005,199.875339 642.291997,201.167326 642.9,202.662 C643.508003,204.156674 643.812,205.815991 643.812,207.64 C643.812,208.501338 643.710668,209.400662 643.508,210.338 C643.305332,211.275338 643.077335,212.199995 642.824,213.112 L637.048,235 L633.324,235 L639.252,212.808 C639.454668,212.098663 639.606666,211.300671 639.708,210.414 C639.809334,209.527329 639.86,208.729337 639.86,208.02 C639.86,205.131986 639.036675,202.852008 637.39,201.18 C635.743325,199.507992 633.501348,198.672 630.664,198.672 C629.093325,198.672 627.510008,199.03933 625.914,199.774 C624.317992,200.50867 622.82334,201.521994 621.43,202.814 C620.03666,204.106006 618.795339,205.625991 617.706,207.374 C616.616661,209.122009 615.793336,211.034656 615.236,213.112 L609.46,235 L605.736,235 L611.664,212.808 C611.866668,212.098663 612.018666,211.300671 612.12,210.414 C612.221334,209.527329 612.272,208.729337 612.272,208.02 C612.272,205.131986 611.448675,202.852008 609.802,201.18 C608.155325,199.507992 605.913348,198.672 603.076,198.672 C601.505325,198.672 599.922008,199.03933 598.326,199.774 C596.729992,200.50867 595.23534,201.521994 593.842,202.814 C592.44866,204.106006 591.207339,205.625991 590.118,207.374 C589.028661,209.122009 588.205336,211.034656 587.648,213.112 L581.796,235 L578.072,235 Z M378.04,323.988 C374.797317,323.988 371.744681,323.481338 368.882,322.468 C366.019319,321.454662 363.524011,319.972676 361.396,318.022 C359.267989,316.071324 357.58334,313.702681 356.342,310.916 C355.10066,308.129319 354.48,304.937351 354.48,301.34 C354.48,297.235979 355.303325,293.233353 356.95,289.332 C358.596675,285.430647 360.876652,281.972682 363.79,278.958 C366.703348,275.943318 370.161313,273.511343 374.164,271.662 C378.166687,269.812657 382.498643,268.888 387.16,268.888 C389.896014,268.888 392.327989,269.153997 394.456,269.686 C396.584011,270.218003 398.445992,270.939995 400.042,271.852 C401.638008,272.764005 403.018661,273.802661 404.184,274.968 C405.349339,276.133339 406.362662,277.349327 407.224,278.616 L402.664,282.188 C401.903996,281.123995 401.042671,280.110671 400.08,279.148 C399.117329,278.185329 398.002673,277.349337 396.736,276.64 C395.469327,275.930663 394.012675,275.373335 392.366,274.968 C390.719325,274.562665 388.806678,274.36 386.628,274.36 C382.929315,274.36 379.509349,275.119992 376.368,276.64 C373.226651,278.160008 370.503345,280.173987 368.198,282.682 C365.892655,285.190013 364.08134,288.052651 362.764,291.27 C361.44666,294.487349 360.788,297.767983 360.788,301.112 C360.788,303.848014 361.218662,306.292656 362.08,308.446 C362.941338,310.599344 364.157325,312.410659 365.728,313.88 C367.298675,315.349341 369.160656,316.476663 371.314,317.262 C373.467344,318.047337 375.835987,318.44 378.42,318.44 C381.308014,318.44 383.891989,318.085337 386.172,317.376 C388.452011,316.666663 390.453325,315.780005 392.176,314.716 L396.356,299.972 L380.32,299.972 L381.764,294.576 L403.728,294.576 L396.964,318.44 C394.126652,320.213342 391.188015,321.581329 388.148,322.544 C385.107985,323.506671 381.738685,323.988 378.04,323.988 Z M429.112,323.912 C426.426653,323.912 423.982011,323.468671 421.778,322.582 C419.573989,321.695329 417.686675,320.466675 416.116,318.896 C414.545325,317.325325 413.342004,315.463344 412.506,313.31 C411.669996,311.156656 411.252,308.813346 411.252,306.28 C411.252,303.239985 411.87266,300.301348 413.114,297.464 C414.35534,294.626652 416.027323,292.131344 418.13,289.978 C420.232677,287.824656 422.677319,286.102006 425.464,284.81 C428.250681,283.517994 431.214651,282.872 434.356,282.872 C437.041347,282.872 439.485989,283.315329 441.69,284.202 C443.894011,285.088671 445.781325,286.304659 447.352,287.85 C448.922675,289.395341 450.138662,291.244656 451,293.398 C451.861338,295.551344 452.292,297.894654 452.292,300.428 C452.292,303.569349 451.658673,306.558652 450.392,309.396 C449.125327,312.233348 447.428011,314.728656 445.3,316.882 C443.171989,319.035344 440.714681,320.745327 437.928,322.012 C435.141319,323.278673 432.202682,323.912 429.112,323.912 Z M429.492,318.668 C431.670678,318.668 433.773323,318.174005 435.8,317.186 C437.826677,316.197995 439.625325,314.868008 441.196,313.196 C442.766675,311.523992 444.007995,309.598678 444.92,307.42 C445.832005,305.241322 446.288,302.986678 446.288,300.656 C446.288,296.653313 445.148011,293.550011 442.868,291.346 C440.587989,289.141989 437.624018,288.04 433.976,288.04 C431.695989,288.04 429.542677,288.559328 427.516,289.598 C425.489323,290.636672 423.716008,291.991992 422.196,293.664 C420.675992,295.336008 419.460005,297.261322 418.548,299.44 C417.635995,301.618678 417.18,303.847989 417.18,306.128 C417.18,310.130687 418.319989,313.221322 420.6,315.4 C422.880011,317.578678 425.843982,318.668 429.492,318.668 Z M471.368,323.684 C468.530652,323.684 466.225342,323.038006 464.452,321.746 C462.678658,320.453994 461.792,318.516013 461.792,315.932 C461.792,315.222663 461.842666,314.513337 461.944,313.804 C462.045334,313.094663 462.171999,312.436003 462.324,311.828 L468.48,288.876 L463.084,288.876 L464.452,283.708 L469.924,283.708 L473.116,271.852 L478.892,271.852 L475.7,283.708 L488.088,283.708 L486.72,288.876 L474.332,288.876 L468.252,311.524 C468.150666,311.980002 468.074667,312.473997 468.024,313.006 C467.973333,313.538003 467.948,314.006665 467.948,314.412 C467.948,315.780007 468.429329,316.79333 469.392,317.452 C470.354671,318.11067 471.671992,318.44 473.344,318.44 C475.066675,318.44 476.966656,318.034671 479.044,317.224 L477.6,322.544 C476.586662,322.949335 475.586005,323.240666 474.598,323.418 C473.609995,323.595334 472.533339,323.684 471.368,323.684 Z M487.784,323 L502.68,267.52 L508.532,267.52 L502.452,290.092 C504.225342,288.065323 506.201322,286.35534 508.38,284.962 C510.558678,283.56866 513.142652,282.872 516.132,282.872 C519.932019,282.872 522.971989,283.961322 525.252,286.14 C527.532011,288.318678 528.672,291.282648 528.672,295.032 C528.672,295.944005 528.570668,296.931995 528.368,297.996 C528.165332,299.060005 527.937335,300.098662 527.684,301.112 L521.908,323 L516.056,323 L521.984,300.732 C522.186668,300.07333 522.338666,299.338671 522.44,298.528 C522.541334,297.717329 522.592,296.98267 522.592,296.324 C522.592,293.739987 521.806675,291.726007 520.236,290.282 C518.665325,288.837993 516.512014,288.116 513.776,288.116 C512.255992,288.116 510.748674,288.432663 509.254,289.066 C507.759326,289.699337 506.378673,290.573328 505.112,291.688 C503.845327,292.802672 502.730671,294.132659 501.768,295.678 C500.805329,297.223341 500.070669,298.933324 499.564,300.808 L493.636,323 L487.784,323 Z M546.988,323.836 C545.315992,323.836 543.732674,323.595336 542.238,323.114 C540.743326,322.632664 539.426006,321.936005 538.286,321.024 C537.145994,320.111995 536.234003,318.984673 535.55,317.642 C534.865997,316.299327 534.524,314.741342 534.524,312.968 C534.524,310.789322 534.954662,308.813342 535.816,307.04 C536.677338,305.266658 537.893325,303.772006 539.464,302.556 C541.034675,301.339994 542.883989,300.40267 545.012,299.744 C547.140011,299.08533 549.470654,298.756 552.004,298.756 C554.63868,298.756 557.146655,298.971331 559.528,299.402 C561.909345,299.832669 564.062657,300.326664 565.988,300.884 L566.216,299.972 C566.368001,299.414664 566.494666,298.80667 566.596,298.148 C566.697334,297.48933 566.748,296.881336 566.748,296.324 C566.748,293.739987 565.874009,291.764007 564.126,290.396 C562.377991,289.027993 559.705351,288.344 556.108,288.344 C553.979989,288.344 552.042009,288.533998 550.294,288.914 C548.545991,289.294002 546.785342,289.787997 545.012,290.396 L544.024,285.532 C545.949343,284.822663 547.950656,284.252669 550.028,283.822 C552.105344,283.391331 554.435987,283.176 557.02,283.176 C561.985358,283.176 565.797987,284.252656 568.458,286.406 C571.118013,288.559344 572.448,291.535981 572.448,295.336 C572.448,296.197338 572.372001,297.083995 572.22,297.996 C572.067999,298.908005 571.865335,299.819995 571.612,300.732 L565.684,323 L559.984,323 L561.656,316.844 C559.831991,318.972011 557.716679,320.669327 555.31,321.936 C552.903321,323.202673 550.129349,323.836 546.988,323.836 Z M548.812,319.276 C550.484008,319.276 552.130659,318.98467 553.752,318.402 C555.373341,317.81933 556.88066,317.021338 558.274,316.008 C559.66734,314.994662 560.895995,313.766007 561.96,312.322 C563.024005,310.877993 563.783998,309.294675 564.24,307.572 L565,304.836 C563.277325,304.329331 561.326678,303.911335 559.148,303.582 C556.969322,303.252665 554.664012,303.088 552.232,303.088 C550.458658,303.088 548.850007,303.315998 547.406,303.772 C545.961993,304.228002 544.733338,304.861329 543.72,305.672 C542.706662,306.482671 541.90867,307.445328 541.326,308.56 C540.74333,309.674672 540.452,310.915993 540.452,312.284 C540.452,314.412011 541.199326,316.109327 542.694,317.376 C544.188674,318.642673 546.227987,319.276 548.812,319.276 Z M578.148,323 L588.636,283.708 L594.488,283.708 L592.816,290.092 C594.589342,288.065323 596.489323,286.35534 598.516,284.962 C600.542677,283.56866 602.999986,282.872 605.888,282.872 C607.560008,282.872 609.029327,283.125331 610.296,283.632 C611.562673,284.138669 612.651995,284.797329 613.564,285.608 C614.476005,286.418671 615.22333,287.368661 615.806,288.458 C616.38867,289.547339 616.806665,290.649328 617.06,291.764 C618.833342,289.027986 621.03732,286.862008 623.672,285.266 C626.30668,283.669992 629.371983,282.872 632.868,282.872 C634.641342,282.872 636.262659,283.16333 637.732,283.746 C639.201341,284.32867 640.467995,285.151995 641.532,286.216 C642.596005,287.280005 643.41933,288.559326 644.002,290.054 C644.58467,291.548674 644.876,293.207991 644.876,295.032 C644.876,295.944005 644.762001,296.931995 644.534,297.996 C644.305999,299.060005 644.065335,300.098662 643.812,301.112 L637.96,323 L632.108,323 L638.112,300.732 C638.314668,300.07333 638.454,299.338671 638.53,298.528 C638.606,297.717329 638.644,296.98267 638.644,296.324 C638.644,293.739987 637.934674,291.726007 636.516,290.282 C635.097326,288.837993 633.096013,288.116 630.512,288.116 C629.042659,288.116 627.598674,288.432663 626.18,289.066 C624.761326,289.699337 623.444006,290.585994 622.228,291.726 C621.011994,292.866006 619.935338,294.208659 618.998,295.754 C618.060662,297.299341 617.364002,298.983991 616.908,300.808 L611.056,323 L605.204,323 L611.132,300.732 C611.334668,300.07333 611.486666,299.338671 611.588,298.528 C611.689334,297.717329 611.74,296.98267 611.74,296.324 C611.74,293.739987 611.018007,291.726007 609.574,290.282 C608.129993,288.837993 606.116013,288.116 603.532,288.116 C602.062659,288.116 600.63134,288.432663 599.238,289.066 C597.84466,289.699337 596.540006,290.585994 595.324,291.726 C594.107994,292.866006 593.031338,294.208659 592.094,295.754 C591.156662,297.299341 590.434669,298.983991 589.928,300.808 L584,323 L578.148,323 Z M376.976,411.912 C373.834651,411.912 370.807348,411.430671 367.894,410.468 C364.980652,409.505329 362.384011,408.074009 360.104,406.174 C357.823989,404.273991 356.000007,401.892681 354.632,399.03 C353.263993,396.167319 352.58,392.836019 352.58,389.036 C352.58,384.931979 353.415992,380.942019 355.088,377.066 C356.760008,373.189981 359.065319,369.757348 362.004,366.768 C364.942681,363.778652 368.42598,361.384676 372.454,359.586 C376.48202,357.787324 380.851976,356.888 385.564,356.888 C388.350681,356.888 390.845989,357.141331 393.05,357.648 C395.254011,358.154669 397.217325,358.851329 398.94,359.738 C400.662675,360.624671 402.14466,361.637994 403.386,362.778 C404.62734,363.918006 405.703995,365.095994 406.616,366.312 L399.624,372.24 C398.863996,371.327995 398.015338,370.454004 397.078,369.618 C396.140662,368.781996 395.076673,368.060003 393.886,367.452 C392.695327,366.843997 391.365341,366.362668 389.896,366.008 C388.426659,365.653332 386.754676,365.476 384.88,365.476 C381.687984,365.476 378.711347,366.121994 375.95,367.414 C373.188653,368.706006 370.807343,370.428656 368.806,372.582 C366.804657,374.735344 365.234006,377.205319 364.094,379.992 C362.953994,382.778681 362.384,385.691985 362.384,388.732 C362.384,391.062678 362.763996,393.139991 363.524,394.964 C364.284004,396.788009 365.347993,398.32066 366.716,399.562 C368.084007,400.80334 369.692657,401.75333 371.542,402.412 C373.391343,403.07067 375.405322,403.4 377.584,403.4 C380.016012,403.4 382.156657,403.121336 384.006,402.564 C385.855343,402.006664 387.463993,401.373337 388.832,400.664 L392.1,389.416 L378.496,389.416 L380.7,381.284 L403.348,381.284 L396.128,406.744 C393.391986,408.365341 390.491349,409.631995 387.426,410.544 C384.360651,411.456005 380.877353,411.912 376.976,411.912 Z M429.188,403.932 C431.113343,403.932 432.911992,403.476005 434.584,402.564 C436.256008,401.651995 437.71266,400.474007 438.954,399.03 C440.19534,397.585993 441.170663,395.952009 441.88,394.128 C442.589337,392.303991 442.944,390.480009 442.944,388.656 C442.944,385.261316 441.99401,382.639343 440.094,380.79 C438.193991,378.940657 435.724015,378.016 432.684,378.016 C430.70799,378.016 428.884008,378.471995 427.212,379.384 C425.539992,380.296005 424.08334,381.486659 422.842,382.956 C421.60066,384.425341 420.638003,386.071991 419.954,387.896 C419.269997,389.720009 418.928,391.518658 418.928,393.292 C418.928,396.686684 419.877991,399.308657 421.778,401.158 C423.67801,403.007343 426.147985,403.932 429.188,403.932 Z M428.656,411.912 C425.767986,411.912 423.171345,411.456005 420.866,410.544 C418.560655,409.631995 416.584675,408.352675 414.938,406.706 C413.291325,405.059325 412.024671,403.121344 411.138,400.892 C410.251329,398.662656 409.808,396.23068 409.808,393.596 C409.808,390.555985 410.415994,387.617348 411.632,384.78 C412.848006,381.942652 414.519989,379.434678 416.648,377.256 C418.776011,375.077322 421.258652,373.32934 424.096,372.012 C426.933348,370.69466 429.973317,370.036 433.216,370.036 C436.104014,370.036 438.700655,370.491995 441.006,371.404 C443.311345,372.316005 445.287325,373.595325 446.934,375.242 C448.580675,376.888675 449.847329,378.839322 450.734,381.094 C451.620671,383.348678 452.064,385.79332 452.064,388.428 C452.064,391.468015 451.44334,394.406652 450.202,397.244 C448.96066,400.081348 447.276011,402.589322 445.148,404.768 C443.019989,406.946678 440.537348,408.681994 437.7,409.974 C434.862652,411.266006 431.848016,411.912 428.656,411.912 Z M470.38,411.684 C467.137317,411.684 464.654675,410.974674 462.932,409.556 C461.209325,408.137326 460.348,406.212012 460.348,403.78 C460.348,402.209325 460.575998,400.664008 461.032,399.144 L466.428,378.776 L461.336,378.776 L463.464,370.872 L468.556,370.872 L471.52,359.852 L480.716,359.852 L477.752,370.872 L488.468,370.872 L486.34,378.776 L475.624,378.776 L470.456,398.156 C470.354666,398.561335 470.278667,398.966665 470.228,399.372 C470.177333,399.777335 470.152,400.131998 470.152,400.436 C470.152,402.513344 471.494653,403.552 474.18,403.552 C476.054676,403.552 478.005323,403.121338 480.032,402.26 L477.904,410.24 C475.775989,411.202671 473.268014,411.684 470.38,411.684 Z M501.768,355.52 L510.964,355.52 L505.492,376.04 C507.113341,374.418659 508.899324,373.012673 510.85,371.822 C512.800676,370.631327 515.067987,370.036 517.652,370.036 C521.401352,370.036 524.377989,371.112656 526.582,373.266 C528.786011,375.419344 529.888,378.345315 529.888,382.044 C529.888,383.108005 529.761335,384.26066 529.508,385.502 C529.254665,386.74334 528.976002,387.946661 528.672,389.112 L522.896,411 L513.7,411 L519.628,388.732 C519.830668,388.07333 519.982666,387.37667 520.084,386.642 C520.185334,385.90733 520.236,385.261336 520.236,384.704 C520.236,382.677323 519.628006,381.119339 518.412,380.03 C517.195994,378.940661 515.473344,378.396 513.244,378.396 C510.659987,378.396 508.38001,379.320657 506.404,381.17 C504.42799,383.019343 503.034671,385.438652 502.224,388.428 L496.144,411 L486.948,411 L501.768,355.52 Z M550.332,405.072 C551.750674,405.072 553.11866,404.818669 554.436,404.312 C555.75334,403.805331 556.956661,403.108671 558.046,402.222 C559.135339,401.335329 560.072663,400.322006 560.858,399.182 C561.643337,398.041994 562.187998,396.864006 562.492,395.648 L562.948,393.9 C561.681327,393.494665 560.288008,393.140002 558.768,392.836 C557.247992,392.531998 555.601342,392.38 553.828,392.38 C550.737318,392.38 548.318009,393.051327 546.57,394.394 C544.821991,395.736673 543.948,397.471989 543.948,399.6 C543.948,401.373342 544.517994,402.728662 545.658,403.666 C546.798006,404.603338 548.35599,405.072 550.332,405.072 Z M546.76,411.836 C545.037325,411.836 543.428674,411.570003 541.934,411.038 C540.439326,410.505997 539.147339,409.771338 538.058,408.834 C536.968661,407.896662 536.107337,406.744007 535.474,405.376 C534.840664,404.007993 534.524,402.488008 534.524,400.816 C534.524,398.485322 534.967329,396.420676 535.854,394.622 C536.740671,392.823324 537.981992,391.316006 539.578,390.1 C541.174008,388.883994 543.061322,387.959337 545.24,387.326 C547.418678,386.692663 549.799987,386.376 552.384,386.376 C554.613344,386.376 556.728657,386.553332 558.73,386.908 C560.731343,387.262668 562.618658,387.743997 564.392,388.352 L564.62,387.516 C564.772001,386.907997 564.886,386.376002 564.962,385.92 C565.038,385.463998 565.076,384.932003 565.076,384.324 C565.076,382.550658 564.392007,381.119339 563.024,380.03 C561.655993,378.940661 559.426682,378.396 556.336,378.396 C554.309323,378.396 552.371343,378.598665 550.522,379.004 C548.672657,379.409335 546.937341,379.94133 545.316,380.6 L543.796,373 C545.873344,372.138662 548.102655,371.467336 550.484,370.986 C552.865345,370.504664 555.423986,370.264 558.16,370.264 C563.480027,370.264 567.49532,371.353322 570.206,373.532 C572.91668,375.710678 574.272,378.77598 574.272,382.728 C574.272,383.690671 574.196001,384.627995 574.044,385.54 C573.891999,386.452005 573.689335,387.414662 573.436,388.428 L567.432,411 L558.388,411 L559.756,405.756 C557.982658,407.630676 556.057344,409.112661 553.98,410.202 C551.902656,411.291339 549.496014,411.836 546.76,411.836 Z M588.94,370.872 L598.136,370.872 L596.768,376.04 C598.389341,374.418659 600.111991,373.012673 601.936,371.822 C603.760009,370.631327 605.963987,370.036 608.548,370.036 C611.537348,370.036 613.931324,370.808659 615.73,372.354 C617.528676,373.899341 618.782663,375.811989 619.492,378.092 C621.265342,375.659988 623.405987,373.709341 625.914,372.24 C628.422013,370.770659 631.297317,370.036 634.54,370.036 C638.188018,370.036 641.088656,371.125322 643.242,373.304 C645.395344,375.482678 646.472,378.395982 646.472,382.044 C646.472,383.108005 646.332668,384.26066 646.054,385.502 C645.775332,386.74334 645.484002,387.946661 645.18,389.112 L639.328,411 L630.132,411 L636.136,388.732 C636.288001,388.07333 636.414666,387.37667 636.516,386.642 C636.617334,385.90733 636.668,385.261336 636.668,384.704 C636.668,382.677323 636.110672,381.119339 634.996,380.03 C633.881328,378.940661 632.260011,378.396 630.132,378.396 C627.598654,378.396 625.38201,379.320657 623.482,381.17 C621.581991,383.019343 620.252004,385.438652 619.492,388.428 L613.412,411 L604.216,411 L610.22,388.732 C610.372001,388.07333 610.498666,387.37667 610.6,386.642 C610.701334,385.90733 610.752,385.261336 610.752,384.704 C610.752,382.677323 610.194672,381.119339 609.08,380.03 C607.965328,378.940661 606.344011,378.396 604.216,378.396 C601.631987,378.396 599.402676,379.320657 597.528,381.17 C595.653324,383.019343 594.310671,385.438652 593.5,388.428 L587.42,411 L578.224,411 L588.94,370.872 Z M376.292,499.912 C373.251985,499.912 370.237348,499.456005 367.248,498.544 C364.258652,497.631995 361.586012,496.226009 359.23,494.326 C356.873988,492.42599 354.961341,490.019348 353.492,487.106 C352.022659,484.192652 351.288,480.76002 351.288,476.808 C351.288,472.653313 352.123992,468.663352 353.796,464.838 C355.468008,461.012648 357.773319,457.618015 360.712,454.654 C363.650681,451.689985 367.146646,449.321342 371.2,447.548 C375.253354,445.774658 379.686643,444.888 384.5,444.888 C387.286681,444.888 389.819989,445.141331 392.1,445.648 C394.380011,446.154669 396.406658,446.825996 398.18,447.662 C399.953342,448.498004 401.511327,449.473328 402.854,450.588 C404.196673,451.702672 405.323995,452.867994 406.236,454.084 L397.572,461.76 C396.001325,460.037325 394.114011,458.580673 391.91,457.39 C389.705989,456.199327 386.932017,455.604 383.588,455.604 C380.750652,455.604 378.103346,456.173994 375.646,457.314 C373.188654,458.454006 371.060676,459.97399 369.262,461.874 C367.463324,463.774009 366.044672,465.977987 365.006,468.486 C363.967328,470.994013 363.448,473.641319 363.448,476.428 C363.448,478.505344 363.802663,480.341992 364.512,481.938 C365.221337,483.534008 366.19666,484.863995 367.438,485.928 C368.67934,486.992005 370.123325,487.802664 371.77,488.36 C373.416675,488.917336 375.177324,489.196 377.052,489.196 C379.129344,489.196 380.940659,488.993335 382.486,488.588 C384.031341,488.182665 385.386661,487.701336 386.552,487.144 L389.06,478.48 L377.28,478.48 L380.016,468.372 L403.12,468.372 L395.596,494.896 C392.96132,496.365341 390.086016,497.568662 386.97,498.506 C383.853984,499.443338 380.294687,499.912 376.292,499.912 Z M428.352,499.912 C425.311985,499.912 422.588679,499.443338 420.182,498.506 C417.775321,497.568662 415.723342,496.264008 414.026,494.592 C412.328658,492.919992 411.024005,490.931345 410.112,488.626 C409.199995,486.320655 408.744,483.800014 408.744,481.064 C408.744,478.023985 409.351994,475.085348 410.568,472.248 C411.784006,469.410652 413.455989,466.902678 415.584,464.724 C417.712011,462.545322 420.207319,460.79734 423.07,459.48 C425.932681,458.16266 429.01065,457.504 432.304,457.504 C435.344015,457.504 438.067321,457.972662 440.474,458.91 C442.880679,459.847338 444.932658,461.151992 446.63,462.824 C448.327342,464.496008 449.631995,466.484655 450.544,468.79 C451.456005,471.095345 451.912,473.615986 451.912,476.352 C451.912,479.392015 451.29134,482.330652 450.05,485.168 C448.80866,488.005348 447.124011,490.513322 444.996,492.692 C442.867989,494.870678 440.372681,496.61866 437.51,497.936 C434.647319,499.25334 431.594683,499.912 428.352,499.912 Z M428.884,490.032 C430.657342,490.032 432.265993,489.601338 433.71,488.74 C435.154007,487.878662 436.382662,486.802006 437.396,485.51 C438.409338,484.217994 439.194664,482.786675 439.752,481.216 C440.309336,479.645325 440.588,478.125341 440.588,476.656 C440.588,473.666652 439.777341,471.374008 438.156,469.778 C436.534659,468.181992 434.40668,467.384 431.772,467.384 C429.998658,467.384 428.390007,467.814662 426.946,468.676 C425.501993,469.537338 424.273338,470.613994 423.26,471.906 C422.246662,473.198006 421.461336,474.641992 420.904,476.238 C420.346664,477.834008 420.068,479.341326 420.068,480.76 C420.068,483.749348 420.878659,486.041992 422.5,487.638 C424.121341,489.234008 426.24932,490.032 428.884,490.032 Z M469.696,499.684 C466.199983,499.684 463.590675,498.924008 461.868,497.404 C460.145325,495.883992 459.284,493.984011 459.284,491.704 C459.284,490.842662 459.347333,490.006671 459.474,489.196 C459.600667,488.385329 459.790665,487.524005 460.044,486.612 L464.984,468.144 L460.12,468.144 L462.78,458.264 L467.644,458.264 L470.456,447.852 L482.008,447.852 L479.196,458.264 L488.772,458.264 L486.112,468.144 L476.536,468.144 L471.976,485.244 C471.874666,485.548002 471.798667,485.864665 471.748,486.194 C471.697333,486.523335 471.672,486.814665 471.672,487.068 C471.672,488.689341 472.710656,489.5 474.788,489.5 C475.700005,489.5 476.675328,489.386001 477.714,489.158 C478.752672,488.929999 479.753329,488.613335 480.716,488.208 L478.056,498.012 C475.674655,499.126672 472.888016,499.684 469.696,499.684 Z M486.416,499 L501.16,443.52 L512.712,443.52 L507.696,462.52 C509.165341,461.20266 510.811991,460.037338 512.636,459.024 C514.460009,458.010662 516.511989,457.504 518.792,457.504 C522.440018,457.504 525.353322,458.555323 527.532,460.658 C529.710678,462.760677 530.8,465.661315 530.8,469.36 C530.8,470.525339 530.660668,471.779327 530.382,473.122 C530.103332,474.464673 529.786668,475.79466 529.432,477.112 L523.58,499 L512.028,499 L518.032,476.656 C518.184001,476.098664 518.310666,475.478003 518.412,474.794 C518.513334,474.109997 518.564,473.514669 518.564,473.008 C518.564,471.386659 518.070005,470.145338 517.082,469.284 C516.093995,468.422662 514.713342,467.992 512.94,467.992 C510.659989,467.992 508.785341,468.739326 507.316,470.234 C505.846659,471.728674 504.78267,473.691988 504.124,476.124 L497.968,499 L486.416,499 Z M546.304,499.76 C544.530658,499.76 542.922007,499.494003 541.478,498.962 C540.033993,498.429997 538.792672,497.670005 537.754,496.682 C536.715328,495.693995 535.90467,494.54134 535.322,493.224 C534.73933,491.90666 534.448,490.437341 534.448,488.816 C534.448,486.485322 534.903995,484.408009 535.816,482.584 C536.728005,480.759991 537.969325,479.214673 539.54,477.948 C541.110675,476.681327 542.959989,475.731336 545.088,475.098 C547.216011,474.464663 549.521321,474.148 552.004,474.148 C554.233344,474.148 556.272657,474.312665 558.122,474.642 C559.971343,474.971335 561.757325,475.414664 563.48,475.972 L563.632,475.44 C563.733334,474.983998 563.834666,474.515336 563.936,474.034 C564.037334,473.552664 564.088,473.008003 564.088,472.4 C564.088,470.981326 563.530672,469.828671 562.416,468.942 C561.301328,468.055329 559.300014,467.612 556.412,467.612 C554.43599,467.612 552.49801,467.827331 550.598,468.258 C548.697991,468.688669 547.013341,469.207997 545.544,469.816 L543.72,460.696 C545.848011,459.834662 548.178654,459.138003 550.712,458.606 C553.245346,458.073997 555.955986,457.808 558.844,457.808 C564.366694,457.808 568.495986,458.897322 571.232,461.076 C573.968014,463.254678 575.336,466.345313 575.336,470.348 C575.336,471.412005 575.247334,472.450662 575.07,473.464 C574.892666,474.477338 574.677335,475.490662 574.424,476.504 L568.42,499 L557.248,499 L558.464,494.288 C556.842659,496.061342 555.018677,497.416662 552.992,498.354 C550.965323,499.291338 548.736012,499.76 546.304,499.76 Z M551.244,491.856 C552.460006,491.856 553.612661,491.640669 554.702,491.21 C555.791339,490.779331 556.791995,490.184004 557.704,489.424 C558.616005,488.663996 559.40133,487.790005 560.06,486.802 C560.71867,485.813995 561.199998,484.762672 561.504,483.648 L561.808,482.584 C560.794662,482.178665 559.62934,481.836668 558.312,481.558 C556.99466,481.279332 555.626674,481.14 554.208,481.14 C551.775988,481.14 549.787341,481.709994 548.242,482.85 C546.696659,483.990006 545.924,485.54799 545.924,487.524 C545.924,488.790673 546.405329,489.829329 547.368,490.64 C548.330671,491.450671 549.622659,491.856 551.244,491.856 Z M578.376,499 L589.244,458.264 L600.796,458.264 L599.656,462.52 C601.125341,461.20266 602.721325,460.037338 604.444,459.024 C606.166675,458.010662 608.167989,457.504 610.448,457.504 C613.234681,457.504 615.527324,458.16266 617.326,459.48 C619.124676,460.79734 620.429329,462.595989 621.24,464.876 C623.013342,462.697322 625.115988,460.924007 627.548,459.556 C629.980012,458.187993 632.741318,457.504 635.832,457.504 C639.480018,457.504 642.355323,458.555323 644.458,460.658 C646.560677,462.760677 647.612,465.661315 647.612,469.36 C647.612,470.525339 647.472668,471.779327 647.194,473.122 C646.915332,474.464673 646.598668,475.79466 646.244,477.112 L640.392,499 L628.84,499 L634.844,476.656 C634.996001,476.098664 635.122666,475.478003 635.224,474.794 C635.325334,474.109997 635.376,473.514669 635.376,473.008 C635.376,469.663983 633.577351,467.992 629.98,467.992 C627.699989,467.992 625.850674,468.739326 624.432,470.234 C623.013326,471.728674 621.97467,473.691988 621.316,476.124 L615.16,499 L603.608,499 L609.612,476.656 C609.764001,476.098664 609.890666,475.478003 609.992,474.794 C610.093334,474.109997 610.144,473.514669 610.144,473.008 C610.144,469.663983 608.345351,467.992 604.748,467.992 C602.467989,467.992 600.618674,468.739326 599.2,470.234 C597.781326,471.728674 596.74267,473.691988 596.084,476.124 L589.928,499 L578.376,499 Z M374.658,588.064 C361.966,588.064 349.046,580.92 349.046,564.58 C349.046,547.632 362.878,532.736 383.17,532.736 C393.81,532.736 401.562,537.068 405.21,541.78 L395.33,551.356 C392.214,548.24 387.882,545.884 382.182,545.884 C371.466,545.884 364.094,554.168 364.094,563.972 C364.094,571.42 369.49,575.296 376.026,575.296 C378.99,575.296 381.27,574.688 383.094,573.852 L385.222,566.708 L374.962,566.708 L377.774,555.916 L402.17,555.916 L394.57,582.744 C389.326,585.784 382.486,588.064 374.658,588.064 Z M425.578,587.988 C413.038,587.988 405.438,579.704 405.438,568.836 C405.438,556.448 415.85,544.972 429.606,544.972 C442.222,544.972 449.822,553.256 449.822,564.048 C449.822,576.512 439.41,587.988 425.578,587.988 Z M426.414,575.98 C432.114,575.98 435.99,569.976 435.99,564.58 C435.99,559.944 433.102,556.98 428.846,556.98 C423.146,556.98 419.27,562.984 419.27,568.304 C419.27,573.016 422.158,575.98 426.414,575.98 Z M468.366,587.836 C460.006,587.836 455.902,584.188 455.902,578.108 C455.902,576.436 456.206,574.688 456.662,572.712 L460.766,557.512 L455.902,557.512 L459.018,545.884 L463.882,545.884 L466.694,535.472 L481.134,535.472 L478.322,545.884 L487.898,545.884 L484.782,557.512 L475.206,557.512 L471.71,570.432 C471.482,571.42 471.33,572.332 471.33,572.94 C471.33,574.612 472.318,575.524 474.598,575.524 C476.194,575.524 477.942,575.144 480.07,574.384 L476.878,586.392 C474.294,587.304 471.33,587.836 468.366,587.836 Z M483.186,587 L498.006,531.52 L512.446,531.52 L507.354,550.596 C510.166,547.632 514.27,544.972 519.134,544.972 C526.582,544.972 531.066,549.684 531.066,557.284 C531.066,559.488 530.534,562.072 529.85,564.656 L523.922,587 L509.482,587 L515.258,565.492 C515.562,564.428 515.714,563.06 515.714,562.148 C515.714,559.412 514.118,557.816 511.154,557.816 C507.126,557.816 504.77,560.552 503.478,565.264 L497.626,587 L483.186,587 Z M544.366,587.836 C537.602,587.836 532.89,583.504 532.89,576.664 C532.89,567.62 540.11,562.148 550.978,562.148 C554.702,562.148 558.122,562.756 561.39,563.744 L561.542,563.212 C561.694,562.528 561.922,561.692 561.922,560.704 C561.922,558.044 559.87,556.296 554.854,556.296 C550.978,556.296 546.646,557.208 543.758,558.348 L541.706,547.86 C546.038,546.34 551.966,545.352 557.894,545.352 C570.206,545.352 576.21,550.216 576.21,558.424 C576.21,560.324 575.906,562.3 575.374,564.352 L569.294,587 L555.082,587 L556.222,582.592 C552.726,585.86 549.154,587.836 544.366,587.836 Z M551.054,578.944 C554.778,578.944 558.35,575.676 559.49,571.496 L559.87,570.128 C558.274,569.596 556.45,569.216 554.474,569.216 C549.914,569.216 546.95,571.42 546.95,575.144 C546.95,577.5 548.622,578.944 551.054,578.944 Z M576.59,587 L587.61,545.884 L602.05,545.884 L600.834,550.444 C603.646,547.556 607.446,544.972 612.31,544.972 C617.934,544.972 621.506,547.86 623.026,552.116 C626.902,547.708 631.918,544.972 637.922,544.972 C645.75,544.972 650.082,549.684 650.082,557.208 C650.082,559.412 649.55,562.072 648.866,564.656 L642.862,587 L628.498,587 L634.198,565.492 C634.502,564.428 634.73,563.06 634.73,562.148 C634.73,559.412 633.362,557.816 630.322,557.816 C626.446,557.816 624.09,560.552 622.798,565.264 L616.946,587 L602.506,587 L608.282,565.492 C608.586,564.428 608.814,563.06 608.814,562.148 C608.814,559.412 607.37,557.816 604.406,557.816 C600.53,557.816 598.174,560.552 596.882,565.264 L591.03,587 L576.59,587 Z M373.214,676.14 C359.99,676.14 346.918,669.148 346.918,652.428 C346.918,635.024 360.598,620.66 382.03,620.66 C392.062,620.66 400.65,624.992 404.298,629.476 L393.202,640.876 C390.162,638.064 385.602,636.088 380.89,636.088 C370.782,636.088 364.778,643.004 364.778,651.592 C364.778,658.204 369.566,661.472 375.114,661.472 C377.014,661.472 378.534,661.168 379.75,660.636 L381.498,654.936 L372.758,654.936 L375.646,643.536 L401.258,643.536 L393.658,670.668 C388.414,673.784 380.89,676.14 373.214,676.14 Z M422.994,675.988 C409.922,675.988 402.246,667.476 402.246,656.684 C402.246,643.992 412.658,632.516 427.098,632.516 C440.17,632.516 447.846,641.028 447.846,651.82 C447.846,664.512 437.434,675.988 422.994,675.988 Z M424.058,661.928 C428.39,661.928 431.582,657.52 431.582,652.58 C431.582,649.084 429.378,646.576 426.034,646.576 C421.702,646.576 418.51,650.984 418.51,655.924 C418.51,659.42 420.714,661.928 424.058,661.928 Z M467.074,675.912 C457.346,675.912 452.634,672.188 452.634,664.588 C452.634,662.84 452.938,660.94 453.47,658.812 L456.662,646.804 L451.798,646.804 L455.37,633.504 L460.234,633.504 L463.046,623.092 L480.298,623.092 L477.486,633.504 L487.062,633.504 L483.49,646.804 L473.914,646.804 L471.558,655.696 C471.178,657.064 471.026,658.052 471.026,658.888 C471.026,660.636 472.09,661.548 474.522,661.548 C475.89,661.548 477.106,661.32 479.538,660.636 L475.814,674.696 C472.85,675.456 469.962,675.912 467.074,675.912 Z M480.07,675 L494.966,619.52 L512.218,619.52 L507.05,638.672 C509.786,635.328 514.27,632.516 519.438,632.516 C527.038,632.516 531.294,637.456 531.294,645.208 C531.294,647.336 530.99,649.692 530.306,652.2 L524.226,675 L506.974,675 L512.522,654.328 C512.826,653.264 512.978,652.048 512.978,651.212 C512.978,649.008 511.838,647.564 509.33,647.564 C505.91,647.564 504.086,649.844 502.87,654.328 L497.322,675 L480.07,675 Z M542.39,675.912 C536.006,675.912 531.294,671.732 531.294,664.588 C531.294,655.848 538.134,650.148 549.838,650.148 C552.954,650.148 556.146,650.604 559.262,651.516 L559.414,651.06 C559.566,650.528 559.718,649.692 559.718,649.008 C559.718,646.424 557.666,644.98 553.334,644.98 C549.534,644.98 544.822,645.74 542.01,646.804 L539.73,635.1 C544.214,633.732 550.826,632.896 556.83,632.896 C570.586,632.896 576.97,638.14 576.97,646.424 C576.97,648.172 576.742,650.148 576.21,652.2 L570.13,675 L552.878,675 L554.018,670.82 C550.294,673.936 547.178,675.912 542.39,675.912 Z M550.75,666.108 C553.486,666.108 556.45,663.296 557.438,659.42 L557.894,657.672 C556.754,657.368 555.842,657.216 554.702,657.216 C550.37,657.216 547.938,659.268 547.938,662.84 C547.938,664.968 549.154,666.108 550.75,666.108 Z M574.766,675 L585.862,633.504 L603.114,633.504 L601.822,638.368 C604.558,635.252 608.814,632.516 613.982,632.516 C619.682,632.516 623.178,635.404 624.698,639.356 C628.878,634.948 634.046,632.516 639.898,632.516 C648.258,632.516 652.362,637.456 652.362,645.056 C652.362,647.184 651.982,649.692 651.298,652.2 L645.218,675 L627.966,675 L633.514,654.328 C633.818,653.264 633.97,652.048 633.97,651.212 C633.97,649.008 632.982,647.564 630.474,647.564 C627.358,647.564 625.382,649.768 624.166,654.328 L618.618,675 L601.366,675 L606.914,654.328 C607.218,653.264 607.37,652.048 607.37,651.212 C607.37,649.008 606.382,647.564 603.874,647.564 C600.758,647.564 598.782,649.768 597.566,654.328 L592.018,675 L574.766,675 Z" id="GothamGothamGothamGothamGothamGothamGothamGotham" fill-rule="nonzero"></path>
            </g>
        </g>
    </g>
</svg>